<?xml version="1.0" encoding="UTF-8" standalone="no"?>
<!-- Created with Inkscape (http://www.inkscape.org/) -->

<svg
   width="100"
   height="100"
   version="1.1"
   viewBox="0 0 150 150"
   id="svg532"
   sodipodi:docname="careful-digital-logo-w-text.svg"
   inkscape:version="1.2.2 (b0a84865, 2022-12-01)"
   xmlns:inkscape="http://www.inkscape.org/namespaces/inkscape"
   xmlns:sodipodi="http://sodipodi.sourceforge.net/DTD/sodipodi-0.dtd"
   xmlns="http://www.w3.org/2000/svg"
   xmlns:svg="http://www.w3.org/2000/svg"
   xmlns:rdf="http://www.w3.org/1999/02/22-rdf-syntax-ns#"
   xmlns:cc="http://creativecommons.org/ns#"
   xmlns:dc="http://purl.org/dc/elements/1.1/">
  <defs
     id="defs536">
    <inkscape:path-effect
       effect="bend_path"
       id="path-effect996"
       is_visible="true"
       lpeversion="1"
       bendpath="m 37.563087,77.376478 c 10.072824,5.912366 16.611623,20.857262 37.158204,0"
       prop_scale="1"
       scale_y_rel="false"
       vertical="false"
       hide_knot="false"
       bendpath-nodetypes="cc" />
    <rect
       x="22.153465"
       y="47.029701"
       width="38.242573"
       height="12.00495"
       id="rect992" />
    <inkscape:path-effect
       effect="bend_path"
       id="path-effect873"
       is_visible="true"
       lpeversion="1"
       bendpath="m 21.974106,66.423523 c 12.926155,-6.889184 26.756923,-11.203703 46.040039,0"
       prop_scale="1"
       scale_y_rel="false"
       vertical="false"
       hide_knot="false"
       bendpath-nodetypes="cc" />
  </defs>
  <sodipodi:namedview
     id="namedview534"
     pagecolor="#ffffff"
     bordercolor="#000000"
     borderopacity="0.25"
     inkscape:showpageshadow="2"
     inkscape:pageopacity="0.0"
     inkscape:pagecheckerboard="0"
     inkscape:deskcolor="#d1d1d1"
     showgrid="false"
     inkscape:zoom="8.08"
     inkscape:cx="17.017327"
     inkscape:cy="42.821782"
     inkscape:window-width="1920"
     inkscape:window-height="1080"
     inkscape:window-x="1440"
     inkscape:window-y="0"
     inkscape:window-maximized="0"
     inkscape:current-layer="svg532">
    <inkscape:page
       x="0"
       y="0"
       width="150"
       height="150"
       id="page648" />
    <inkscape:page
       x="-39.356436"
       y="-75.371287"
       width="0.18564356"
       height="5.9405941"
       id="page650" />
  </sodipodi:namedview>
  <metadata
     id="metadata301">
    <rdf:RDF>
      <cc:Work
         rdf:about="">
        <dc:format>image/svg+xml</dc:format>
        <dc:type
           rdf:resource="http://purl.org/dc/dcmitype/StillImage" />
        <dc:title />
      </cc:Work>
    </rdf:RDF>
  </metadata>
  <style
     id="style303">
    .name {
      font: italic 13px IAWriter Quattro;
      fill: white;
    }
  </style>
  <g
     transform="translate(11.881188,-234.94555)"
     id="g523">
    <g
       transform="translate(-12.767,185.02)"
       id="g521">
      <path
         d="m 14.155,81.828 8.4005,0.13229 1.5214,1.5214"
         fill="none"
         stroke="#000000"
         stroke-width="0.26458px"
         id="path305" />
      <path
         d="M 40.296,59.111 A 26.233,25.345 0 0 1 66.529,84.422 26.233,25.345 0 0 1 40.365,109.8 26.233,25.345 0 0 1 14.063,84.556 26.233,25.345 0 0 1 40.157,59.111"
         fill="#800000"
         stroke="#ffffff"
         stroke-width="0.71227"
         id="path307" />
      <path
         d="m 40.138,59.063 c 0.4277,0.0049 0.4277,0.0049 0.4277,0.0049 l -0.004,0.0944 -0.4071,0.0021 z"
         fill="#aa0000"
         stroke="#ffffff"
         stroke-width="0.6"
         id="path309" />
      <g
         fill="none"
         id="g511">
        <g
           stroke="#ffffff"
           id="g451">
          <path
             transform="matrix(-0.99994,-0.011383,0.011273,-0.99994,0,0)"
             d="m -43.213,-69.098 a 1.0485,0.97316 0 0 1 1.0485,0.97188 1.0485,0.97316 0 0 1 -1.0458,0.97445 1.0485,0.97316 0 0 1 -1.0513,-0.9693 1.0485,0.97316 0 0 1 1.043,-0.97701"
             stroke-width="0.7"
             id="path311" />
          <path
             transform="matrix(0.088298,0.99609,-0.99602,0.089153,0,0)"
             d="m 72.942,-43.65 a 1.0536,0.96849 0 0 1 1.0536,0.96721 1.0536,0.96849 0 0 1 -1.0508,0.96976 1.0536,0.96849 0 0 1 -1.0564,-0.96464 1.0536,0.96849 0 0 1 1.048,-0.97231"
             stroke-width="0.7"
             id="path313" />
          <g
             stroke-width="0.7"
             id="g337">
            <path
               transform="matrix(-0.99994,-0.011383,0.011273,-0.99994,0,0)"
               d="m -52.601,-69.002 a 1.0485,0.97316 0 0 1 1.0485,0.97188 1.0485,0.97316 0 0 1 -1.0458,0.97445 1.0485,0.97316 0 0 1 -1.0513,-0.9693 1.0485,0.97316 0 0 1 1.043,-0.97701"
               id="path315" />
            <path
               d="m 49.812,68.76 0.97871,-0.02503"
               id="path317" />
            <path
               d="m 51.92,64.417 a 0.99172,1.002 0 0 1 0.99172,1.0007 0.99172,1.002 0 0 1 -0.9891,1.0033 0.99172,1.002 0 0 1 -0.99434,-0.99803 0.99172,1.002 0 0 1 0.98647,-1.006"
               id="path319" />
            <path
               d="m 55.051,67.553 a 0.99172,1.002 0 0 1 0.99172,1.0007 0.99172,1.002 0 0 1 -0.9891,1.0033 0.99172,1.002 0 0 1 -0.99434,-0.99803 0.99172,1.002 0 0 1 0.98647,-1.006"
               id="path321" />
            <path
               d="m 58.227,67.619 a 0.99172,1.002 0 0 1 0.99172,1.0007 0.99172,1.002 0 0 1 -0.9891,1.0033 0.99172,1.002 0 0 1 -0.99434,-0.99803 0.99172,1.002 0 0 1 0.98647,-1.006"
               id="path323" />
            <path
               d="m 61.27,70.43 a 0.99172,1.002 0 0 1 0.99172,1.0007 0.99172,1.002 0 0 1 -0.9891,1.0033 0.99172,1.002 0 0 1 -0.99434,-0.99803 0.99172,1.002 0 0 1 0.98647,-1.006"
               id="path325" />
            <path
               d="m 61.38,77.917 a 0.99172,1.002 0 0 1 0.99172,1.0007 0.99172,1.002 0 0 1 -0.9891,1.0033 0.99172,1.002 0 0 1 -0.99434,-0.99803 0.99172,1.002 0 0 1 0.98647,-1.006"
               id="path327" />
            <path
               d="m 64.266,77.941 a 0.99172,1.002 0 0 1 0.99172,1.0007 0.99172,1.002 0 0 1 -0.9891,1.0033 0.99172,1.002 0 0 1 -0.99434,-0.99803 0.99172,1.002 0 0 1 0.98647,-1.006"
               id="path329" />
            <path
               d="m 61.38,81.308 a 0.99172,1.002 0 0 1 0.99172,1.0007 0.99172,1.002 0 0 1 -0.9891,1.0033 0.99172,1.002 0 0 1 -0.99434,-0.99803 0.99172,1.002 0 0 1 0.98647,-1.006"
               id="path331" />
            <path
               d="m 64.289,81.355 a 0.99172,1.002 0 0 1 0.99172,1.0007 0.99172,1.002 0 0 1 -0.9891,1.0033 0.99172,1.002 0 0 1 -0.99434,-0.99803 0.99172,1.002 0 0 1 0.98647,-1.006"
               id="path333" />
            <path
               d="m 21.594,67.604 a 0.99172,1.002 0 0 1 0.99172,1.0007 0.99172,1.002 0 0 1 -0.9891,1.0033 0.99172,1.002 0 0 1 -0.99434,-0.99803 0.99172,1.002 0 0 1 0.98647,-1.006"
               id="path335" />
          </g>
          <path
             transform="matrix(0.040773,0.99917,-0.99915,0.041171,0,0)"
             d="m 69.597,-24.511 a 0.99654,0.99717 0 0 1 0.99654,0.99585 0.99654,0.99717 0 0 1 -0.9939,0.99848 0.99654,0.99717 0 0 1 -0.99917,-0.99321 0.99654,0.99717 0 0 1 0.99126,-1.0011"
             stroke-width="0.7"
             id="path339" />
          <path
             transform="matrix(0.96917,-0.2464,0.24416,0.96973,0,0)"
             d="m 13.294,68.18 a 0.99201,1.0017 0 0 1 0.99201,1.0004 0.99201,1.0017 0 0 1 -0.98939,1.003 0.99201,1.0017 0 0 1 -0.99463,-0.99774 0.99201,1.0017 0 0 1 0.98676,-1.0057"
             stroke-width="0.7"
             id="path341" />
          <g
             stroke-width="0.7"
             id="g389">
            <path
               d="m 27.059,64.289 a 0.99172,1.002 0 0 1 0.99172,1.0007 0.99172,1.002 0 0 1 -0.9891,1.0033 0.99172,1.002 0 0 1 -0.99434,-0.99803 0.99172,1.002 0 0 1 0.98647,-1.006"
               id="path343" />
            <path
               d="m 15.826,81.319 a 0.99172,1.002 0 0 1 0.99172,1.0007 0.99172,1.002 0 0 1 -0.9891,1.0033 0.99172,1.002 0 0 1 -0.99434,-0.99803 0.99172,1.002 0 0 1 0.98647,-1.006"
               id="path345" />
            <path
               transform="matrix(7.0557e-4,1,-1,7.1246e-4,0,0)"
               d="m 76.266,-18.844 a 0.99655,0.99716 0 0 1 0.99655,0.99584 0.99655,0.99716 0 0 1 -0.99391,0.99847 0.99655,0.99716 0 0 1 -0.99918,-0.9932 0.99655,0.99716 0 0 1 0.99127,-1.0011"
               id="path347" />
            <path
               d="m 36.106,67.861 a 0.99172,1.002 0 0 1 0.99172,1.0007 0.99172,1.002 0 0 1 -0.9891,1.0033 0.99172,1.002 0 0 1 -0.99434,-0.99803 0.99172,1.002 0 0 1 0.98647,-1.006"
               id="path349" />
            <path
               d="m 36.083,62.833 a 0.99172,1.002 0 0 1 0.99172,1.0007 0.99172,1.002 0 0 1 -0.9891,1.0033 0.99172,1.002 0 0 1 -0.99434,-0.99803 0.99172,1.002 0 0 1 0.98647,-1.006"
               id="path351" />
            <path
               d="m 32.917,62.833 a 0.99172,1.002 0 0 1 0.99172,1.0007 0.99172,1.002 0 0 1 -0.9891,1.0033 0.99172,1.002 0 0 1 -0.99434,-0.99803 0.99172,1.002 0 0 1 0.98647,-1.006"
               id="path353" />
            <path
               d="m 26.322,96.145 a 0.99172,1.002 0 0 1 0.99172,1.0007 0.99172,1.002 0 0 1 -0.9891,1.0033 0.99172,1.002 0 0 1 -0.99434,-0.99803 0.99172,1.002 0 0 1 0.98647,-1.006"
               id="path355" />
            <path
               d="m 26.368,93.011 a 0.99172,1.002 0 0 1 0.99172,1.0007 0.99172,1.002 0 0 1 -0.9891,1.0033 0.99172,1.002 0 0 1 -0.99434,-0.99803 0.99172,1.002 0 0 1 0.98647,-1.006"
               id="path357" />
            <path
               d="m 22.644,91.374 a 0.99172,1.002 0 0 1 0.99172,1.0007 0.99172,1.002 0 0 1 -0.9891,1.0033 0.99172,1.002 0 0 1 -0.99434,-0.99803 0.99172,1.002 0 0 1 0.98647,-1.006"
               id="path359" />
            <path
               d="m 23.027,87.71 a 0.99172,1.002 0 0 1 0.99172,1.0007 0.99172,1.002 0 0 1 -0.9891,1.0033 0.99172,1.002 0 0 1 -0.99434,-0.99803 0.99172,1.002 0 0 1 0.98647,-1.006"
               id="path361" />
            <path
               d="m 17.803,93.399 a 0.99172,1.002 0 0 1 0.99172,1.0007 0.99172,1.002 0 0 1 -0.9891,1.0033 0.99172,1.002 0 0 1 -0.99434,-0.99803 0.99172,1.002 0 0 1 0.98647,-1.006"
               id="path363" />
            <path
               d="m 15.852,88.207 a 0.99172,1.002 0 0 1 0.99172,1.0007 0.99172,1.002 0 0 1 -0.9891,1.0033 0.99172,1.002 0 0 1 -0.99434,-0.99803 0.99172,1.002 0 0 1 0.98647,-1.006"
               id="path365" />
            <path
               d="m 15.819,85.032 a 0.99172,1.002 0 0 1 0.99172,1.0007 0.99172,1.002 0 0 1 -0.9891,1.0033 0.99172,1.002 0 0 1 -0.99434,-0.99803 0.99172,1.002 0 0 1 0.98647,-1.006"
               id="path367" />
            <path
               d="m 19.307,81.592 a 0.99172,1.002 0 0 1 0.99172,1.0007 0.99172,1.002 0 0 1 -0.9891,1.0033 0.99172,1.002 0 0 1 -0.99434,-0.99803 0.99172,1.002 0 0 1 0.98647,-1.006"
               id="path369" />
            <path
               d="m 29.52,101.72 a 0.99172,1.002 0 0 1 0.99172,1.0007 0.99172,1.002 0 0 1 -0.9891,1.0033 0.99172,1.002 0 0 1 -0.99434,-0.99804 0.99172,1.002 0 0 1 0.98647,-1.006"
               id="path371" />
            <path
               d="m 29.566,104.95 a 0.99172,1.002 0 0 1 0.99172,1.0007 0.99172,1.002 0 0 1 -0.9891,1.0033 0.99172,1.002 0 0 1 -0.99434,-0.99803 0.99172,1.002 0 0 1 0.98647,-1.006"
               id="path373" />
            <path
               d="m 42.459,106.47 a 0.99172,1.002 0 0 1 0.99172,1.0007 0.99172,1.002 0 0 1 -0.9891,1.0033 0.99172,1.002 0 0 1 -0.99434,-0.99803 0.99172,1.002 0 0 1 0.98647,-1.006"
               id="path375" />
            <path
               d="m 39.294,106.47 a 0.99172,1.002 0 0 1 0.99172,1.0007 0.99172,1.002 0 0 1 -0.9891,1.0033 0.99172,1.002 0 0 1 -0.99434,-0.99803 0.99172,1.002 0 0 1 0.98647,-1.006"
               id="path377" />
            <path
               d="m 36.106,106.5 a 0.99172,1.002 0 0 1 0.99172,1.0007 0.99172,1.002 0 0 1 -0.9891,1.0033 0.99172,1.002 0 0 1 -0.99434,-0.99803 0.99172,1.002 0 0 1 0.98647,-1.006"
               id="path379" />
            <path
               d="m 61.939,93.492 a 0.99172,1.002 0 0 1 0.99172,1.0007 0.99172,1.002 0 0 1 -0.9891,1.0033 0.99172,1.002 0 0 1 -0.99434,-0.99803 0.99172,1.002 0 0 1 0.98647,-1.006"
               id="path381" />
            <path
               d="m 45.88,96.065 a 0.99172,1.002 0 0 1 0.99172,1.0007 0.99172,1.002 0 0 1 -0.9891,1.0033 0.99172,1.002 0 0 1 -0.99434,-0.99803 0.99172,1.002 0 0 1 0.98647,-1.006"
               id="path383" />
            <path
               d="m 51.885,99.339 a 0.99172,1.002 0 0 1 0.99172,1.0007 0.99172,1.002 0 0 1 -0.9891,1.0033 0.99172,1.002 0 0 1 -0.99434,-0.99803 0.99172,1.002 0 0 1 0.98647,-1.006"
               id="path385" />
            <path
               d="m 45.834,106.47 a 0.99172,1.002 0 0 1 0.99172,1.0007 0.99172,1.002 0 0 1 -0.9891,1.0033 0.99172,1.002 0 0 1 -0.99434,-0.99803 0.99172,1.002 0 0 1 0.98647,-1.006"
               id="path387" />
          </g>
          <g
             id="g449">
            <g
               stroke-width="0.7"
               id="g409">
              <path
                 d="m 17.699,71.526 6.6815,0.06615 1.1477,2.1167"
                 id="path391" />
              <path
                 d="m 25.758,69.332 -2.1064,2.1828"
                 id="path393" />
              <path
                 d="m 27.327,68.525 7.7781,0.2779"
                 id="path395" />
              <path
                 d="m 36.027,69.795 0.06578,5.6885"
                 id="path397" />
              <path
                 d="M 29.526,62.839 29.5199,61.1718"
                 id="path399" />
              <path
                 d="m 32.941,60.034 c 0,0.13006 -0.02846,2.7997 -0.02846,2.7997"
                 id="path401" />
              <path
                 d="m 36.083,59.32 -0.005,3.5137"
                 id="path403" />
              <path
                 d="m 36.056,67.911 2.9814,-2.7174 0.03843,-6.1728"
                 id="path405" />
              <path
                 d="m 21.607,66.781 c 0.03493,0.02567 -0.01821,0.82344 -0.01821,0.82344"
                 id="path407" />
            </g>
            <path
               d="m 61.357,72.288 0.01801,5.6296"
               stroke-width="0.57793"
               id="path411" />
            <g
               stroke-width="0.7"
               id="g423">
              <path
                 d="m 55.05,69.588 c 0,0.09354 -0.02329,5.5191 -0.02329,5.5191"
                 id="path413" />
              <path
                 d="m 58.215,69.588 -0.04657,6.1038 2.4902,2.5725"
                 id="path415" />
              <path
                 d="m 64.243,74.219 c 0.02329,0.1637 0.01801,3.722 0.01801,3.722"
                 id="path417" />
              <path
                 d="m 65.243,82.334 h 1.024"
                 id="path419" />
              <path
                 d="m 57.447,83.409 2.1411,2.4789 7.0284,0.04677"
                 id="path421" />
            </g>
            <path
               d="m 56.757,85.436 2.7223,3.8277 6.6356,0.04696"
               stroke-width="0.67055"
               id="path425" />
            <path
               d="m 53.933,88.718 h 2.5767 l 3.1468,3.6719 5.6322,0.02339"
               stroke-width="0.69292"
               id="path427" />
            <g
               stroke-width="0.7"
               id="g447">
              <path
                 d="m 48.347,93.863 c 0.23273,0.30402 0.67491,0.74836 0.67491,0.74836 l 11.892,-0.07016"
                 id="path429" />
              <path
                 d="m 47.059,95.238 1.8028,1.95 14.137,-0.0235"
                 id="path431" />
              <path
                 d="m 52.856,100.32 c 0.09765,0.0489 7.8508,0.0489 7.8508,0.0489"
                 id="path433" />
              <path
                 d="m 45.834,98.002 -0.005,8.4694"
                 id="path435" />
              <path
                 d="m 42.343,98.938 c 0,0.11693 0.11112,7.5339 0.11112,7.5339"
                 id="path437" />
              <path
                 d="M 39.289,106.47 39.20113,99.6377"
                 id="path439" />
              <path
                 d="M 36.101,106.5 36.08299,99.691"
                 id="path441" />
              <path
                 d="m 36.575,108.18 c 0.14232,0.0926 1.8146,1.528 1.8146,1.528"
                 id="path443" />
              <path
                 d="m 39.7,108.21 c 0.08774,0.0495 1.7899,1.6671 1.7899,1.6671"
                 id="path445" />
            </g>
          </g>
        </g>
        <path
           d="m 42.955,108.2 1.5876,1.2622"
           stroke-width="0"
           id="path453" />
        <g
           stroke="#ffffff"
           id="g509">
          <g
             stroke-width="0.7"
             id="g479">
            <path
               d="m 27.332,97.16 5.9113,-0.14032"
               id="path455" />
            <path
               d="m 23.515,91.782 1.8153,-1.637"
               id="path457" />
            <path
               d="M 18.624,95.167 28.68,105.203"
               id="path459" />
            <path
               d="m 16.533,89.864 12.245,12.251"
               id="path461" />
            <path
               d="m 15.789,86.964 0.05762,1.2424"
               id="path463" />
            <path
               d="m 18.581,83.269 -2.0247,2.058"
               id="path465" />
            <path
               d="m 18.898,76.247 2.3184,0.02971"
               id="path467" />
            <path
               d="m 39.187,69.348 0.13165,7.3264"
               id="path469" />
            <path
               d="m 39.399,67.576 3.2102,-2.6247 v -5.6694"
               id="path471" />
            <path
               d="m 45.914,59.539 v 5.7877 l -3.0646,2.393"
               id="path473" />
            <path
               d="m 42.412,69.47 v 3.3679"
               id="path475" />
            <path
               d="m 51.825,69.485 0.06578,4.0139"
               id="path477" />
          </g>
          <path
             transform="scale(1,-1)"
             d="m 39.192,-69.464 a 1.0485,0.97316 0 0 1 1.0485,0.97188 1.0485,0.97316 0 0 1 -1.0458,0.97445 1.0485,0.97316 0 0 1 -1.0513,-0.9693 1.0485,0.97316 0 0 1 1.043,-0.97701"
             stroke-width="0.7"
             id="path481" />
          <g
             id="g507">
            <g
               stroke-width="0.7"
               id="g491">
              <path
                 d="m 25.331,90.145 1.1985,-1.0556"
                 id="path483" />
              <path
                 d="m 20.74,76.277 4.9708,-0.0038"
                 id="path485" />
              <path
                 d="M 56.772,85.444 55.5587,83.6319"
                 id="path487" />
              <path
                 d="M 57.447,83.409 55.873,81.0518"
                 id="path489" />
            </g>
            <path
               d="m 25.423,73.546 c 2.7681,3.3075 2.864,3.3075 2.864,3.3075"
               stroke-width="0.71606"
               id="path493" />
            <g
               stroke-width="0.7"
               id="g505">
              <path
                 d="m 42.412,72.371 c 0.09396,4.3211 0.04719,4.3211 0.04719,4.3211"
                 id="path495" />
              <path
                 d="m 51.891,73.499 c 0.01635,2.1114 -0.03042,2.1114 -0.03042,2.1114"
                 id="path497" />
              <path
                 d="m 55.096,74.899 c -1.3373,1.7889 -1.4822,1.9479 -1.4822,1.9479"
                 id="path499" />
              <path
                 d="m 33.243,97.02 c 2.5276,-0.03492 2.6211,-0.12847 2.6211,-0.12847"
                 id="path501" />
              <path
                 d="M 36.083,99.686 36.05191,98.1544"
                 id="path503" />
            </g>
          </g>
        </g>
      </g>
      <g
         transform="rotate(43.167,-10.097,32.577)"
         fill="#ffffff"
         stroke="#ffffff"
         id="g519">
        <path
           transform="matrix(0.70099,-0.71317,-0.71249,-0.70168,0,0)"
           d="m 11.022,-76.242 a 9.903,9.4 0 0 1 9.903,9.3945 9.903,9.4 0 0 1 -9.8914,9.4054 9.903,9.4 0 0 1 -9.9146,-9.3835 9.903,9.4 0 0 1 9.8798,-9.4164 l 0.02316,9.3999 z"
           stroke-width="0.69312"
           id="path513" />
        <rect
           x="56.129002"
           y="29.438999"
           width="19.181"
           height="19.181"
           stroke-width="0.81854"
           id="rect515" />
        <path
           transform="matrix(0.70099,-0.71317,-0.71249,-0.70168,0,0)"
           d="m 25.113,-76.88 a 9.903,9.4 0 0 1 9.903,9.3945 9.903,9.4 0 0 1 -9.8914,9.4054 9.903,9.4 0 0 1 -9.9146,-9.3835 9.903,9.4 0 0 1 9.8798,-9.4164 l 0.02316,9.3999 z"
           stroke-width="0.69312"
           id="path517" />
      </g>
    </g>
  </g>
  <text
     id="text528"
     x="26.918318"
     y="96.856438"
     style="font-style:normal;font-variant:normal;font-weight:normal;font-stretch:normal;font-size:10px;line-height:normal;font-family:'IAWriter Quattro', Helvetica, Arial, sans-serif">Careful</text>
  <style
     id="style530"><![CDATA[
      text{
        dominant-baseline: hanging;
        font: 10px "IAWriter Quattro", Helvetica, Arial, sans-serif;
        fill: white;
      }
    ]]></style>
  <g
     aria-label="CAREFUL "
     id="text806"
     style="font-size:10px;font-family:'IAWriter Quattro', Helvetica, Arial, sans-serif;dominant-baseline:hanging;stroke-width:1.5"
     inkscape:path-effect="#path-effect873"
     class="UnoptimicedTransforms"
     inkscape:transform-center-x="-3.3446133"
     inkscape:transform-center-y="1.0865025"
     transform="matrix(0.88252238,-0.47417009,0.41906823,0.90795475,-43.388677,-24.261796)">
    <path
       d="m 23.372938,61.451966 c 0.905529,-0.44193 1.723037,-0.55206 2.425379,-0.341241 0.703362,0.211124 1.199529,0.591745 1.49793,1.127956 -0.31336,0.136016 -0.625562,0.274367 -0.936593,0.414891 -0.297045,-0.375098 -0.662253,-0.613253 -1.097078,-0.710964 -0.431031,-0.09909 -0.937495,-0.01154 -1.509363,0.267207 -0.697301,0.339892 -1.143058,0.847698 -1.335407,1.507923 -0.19081,0.65608 -0.04257,1.438568 0.431984,2.349244 0.388527,0.74559 0.886863,1.256585 1.48563,1.540319 0.601393,0.279827 1.253284,0.242776 1.967958,-0.103515 0.65761,-0.318641 1.042523,-0.801829 1.162411,-1.46483 0.0644,-0.349362 0.0462,-0.761316 -0.05548,-1.235064 0.300868,-0.13574 0.60252,-0.269323 0.904943,-0.400588 0.220237,0.730046 0.208543,1.42886 -0.02155,2.094013 -0.275265,0.801321 -0.843674,1.402916 -1.721854,1.829442 -0.75736,0.367845 -1.503512,0.461675 -2.252843,0.278291 -0.984991,-0.243591 -1.816549,-0.968606 -2.472512,-2.196432 -0.498156,-0.932447 -0.646687,-1.83885 -0.423391,-2.723865 0.239398,-0.958319 0.888557,-1.714845 1.949838,-2.232787 z m -0.194365,0.09519 z"
       id="path858"
       inkscape:original-d="m 25.318832,62.644226 q 1.362305,0 2.114258,0.717774 0.751953,0.717773 0.834961,1.630859 h -0.947265 q -0.161133,-0.693359 -0.644532,-1.098633 -0.478515,-0.405273 -1.347656,-0.405273 -1.05957,0 -1.713867,0.74707 -0.649414,0.742187 -0.649414,2.280273 0,1.259766 0.585937,2.045899 0.590821,0.78125 1.757813,0.78125 1.074219,0 1.635742,-0.825195 0.297852,-0.434571 0.444336,-1.142579 h 0.947266 q -0.126954,1.132813 -0.839844,1.899414 -0.854492,0.922852 -2.304688,0.922852 -1.25,0 -2.099609,-0.756836 -1.118164,-1.000976 -1.118164,-3.09082 0,-1.586914 0.839844,-2.602539 0.908203,-1.103516 2.504882,-1.103516 z m -0.195312,0 z" />
    <path
       d="m 32.937371,62.299729 c -0.690859,-0.882565 -1.403756,-1.754657 -2.136637,-2.616374 -0.04734,1.137522 -0.06972,2.272723 -0.0694,3.405141 0.73097,-0.279217 1.466369,-0.542859 2.206042,-0.788767 z m -3.032136,-3.426811 c 0.38716,-0.140774 0.776293,-0.277605 1.16738,-0.410241 1.702082,1.946755 3.293832,3.951411 4.748662,6.015411 -0.330995,0.09435 -0.661665,0.193084 -0.991994,0.295988 -0.435708,-0.61289 -0.882282,-1.221022 -1.3391,-1.824423 -0.920498,0.300223 -1.835365,0.629136 -2.744283,0.982381 0.01028,0.765751 0.03061,1.530166 0.06032,2.293105 -0.306249,0.124496 -0.61214,0.251817 -0.917659,0.381775 -0.105794,-2.561728 -0.109596,-5.141668 0.01668,-7.733996 z"
       id="path860"
       inkscape:original-d="m 33.199692,67.072937 -1.088867,-3.168945 -1.157227,3.168945 z m -1.59668,-4.233398 h 1.098633 l 2.602539,7.172851 h -1.064453 l -0.727539,-2.148437 h -2.836914 l -0.776367,2.148437 h -0.996094 z" />
    <path
       d="m 39.125017,59.763099 c 0.475727,-0.08062 0.838399,-0.225325 1.092345,-0.443948 0.257389,-0.219101 0.359882,-0.56175 0.300362,-1.031657 -0.06401,-0.505311 -0.312517,-0.824856 -0.751796,-0.947868 -0.234625,-0.06416 -0.538566,-0.06759 -0.90736,-0.006 -0.878691,0.146718 -1.74966,0.320413 -2.612719,0.518538 l 0.548748,2.377789 c 0.772009,-0.178056 1.548868,-0.334391 2.33042,-0.466842 z m -4.141692,-2.461207 c 1.220092,-0.309443 2.45748,-0.572985 3.711655,-0.783642 0.61971,-0.104089 1.147027,-0.09886 1.571128,0.0059 0.810442,0.203142 1.239541,0.730744 1.319029,1.548199 0.04149,0.42666 -0.02246,0.786002 -0.184237,1.0771 -0.158598,0.291245 -0.394333,0.537768 -0.705586,0.744111 0.306015,0.07553 0.541182,0.199602 0.705525,0.367955 0.16816,0.168451 0.279592,0.458683 0.338011,0.871087 0.04378,0.317201 0.08723,0.63446 0.13037,0.951777 0.03681,0.270422 0.07917,0.470709 0.12653,0.59992 0.07852,0.221091 0.191549,0.357752 0.339023,0.410914 l 0.01426,0.160296 c -0.374417,0.0303 -0.748565,0.06798 -1.122421,0.11273 -0.03826,-0.05749 -0.07281,-0.133387 -0.103577,-0.227657 -0.03075,-0.0942 -0.07011,-0.279096 -0.118174,-0.554156 -0.06943,-0.391806 -0.139533,-0.783482 -0.210291,-1.175027 -0.08301,-0.460286 -0.300265,-0.748895 -0.655906,-0.857922 -0.201799,-0.05902 -0.50827,-0.05793 -0.913859,0.01106 -0.753469,0.128172 -1.503101,0.279422 -2.248747,0.451686 l 0.688669,2.984079 c -0.303192,0.07053 -0.60614,0.145085 -0.90883,0.223477 z"
       id="path862"
       inkscape:original-d="m 39.522934,66.125671 q 0.683594,0 1.079102,-0.273437 0.40039,-0.273438 0.40039,-0.986328 0,-0.766602 -0.55664,-1.044922 Q 40.147934,63.6745 39.649887,63.6745 H 37.27684 v 2.451171 z m -3.217773,-3.286132 h 3.320312 q 0.820313,0 1.352539,0.239257 1.010742,0.458985 1.010742,1.694336 0,0.644532 -0.268554,1.054688 -0.263672,0.410156 -0.742188,0.65918 0.419922,0.170898 0.629883,0.449218 0.214844,0.278321 0.239258,0.903321 l 0.03418,0.961914 q 0.01465,0.410156 0.06836,0.610351 0.08789,0.341797 0.3125,0.439453 v 0.161133 h -1.191406 q -0.04883,-0.09277 -0.07813,-0.239258 -0.0293,-0.146484 -0.04883,-0.566406 l -0.05859,-1.196289 q -0.03418,-0.703125 -0.522461,-0.942383 -0.278321,-0.131836 -0.874024,-0.131836 H 37.27684 v 3.076172 h -0.971679 z" />
    <path
       d="m 43.156846,56.021033 c 2.030514,-0.08769 4.045759,-0.0181 6.036175,0.190438 l -0.0916,0.868489 c -1.595254,-0.167391 -3.205201,-0.242627 -4.824593,-0.215654 l 0.04492,2.169421 c 1.409239,-0.028 2.814543,0.02925 4.211762,0.163781 l -0.07909,0.820943 c -1.366726,-0.131722 -2.739958,-0.186977 -4.115545,-0.157814 l 0.05016,2.422359 c 1.404554,-0.03583 2.811854,0.02755 4.216378,0.179544 l -0.09078,0.844196 c -1.668392,-0.18095 -3.337986,-0.232058 -4.998815,-0.134234 z m 3.075408,-0.01448 z"
       id="path864"
       inkscape:original-d="m 43.502426,62.839539 h 5.229492 v 0.878906 h -4.282226 v 2.177734 h 3.959961 v 0.830078 h -3.959961 v 2.431641 h 4.355469 v 0.854492 h -5.302735 z m 2.651367,0 z" />
    <path
       d="m 50.831913,56.415039 c 1.880073,0.269928 3.735287,0.661082 5.55741,1.157694 l -0.234042,0.846449 C 54.715892,58.025568 53.256784,57.699351 51.782246,57.44875 l -0.367298,2.135389 c 1.230478,0.21113 2.452302,0.47901 3.662555,0.798054 l -0.217998,0.825017 c -1.186911,-0.314087 -2.384109,-0.577681 -3.588677,-0.785195 l -0.550124,3.198297 c -0.305169,-0.05347 -0.610526,-0.102854 -0.916009,-0.148048 z"
       id="path866"
       inkscape:original-d="m 50.172348,62.839539 h 4.975586 v 0.878906 h -4.003906 v 2.177734 h 3.520508 v 0.854492 h -3.520508 v 3.261719 h -0.97168 z" />
    <path
       d="m 58.672461,58.254853 -1.386449,4.218553 c -0.162744,0.495183 -0.202336,0.939415 -0.125621,1.32973 0.111205,0.588978 0.483495,0.992206 1.123503,1.231611 0.76765,0.287151 1.388936,0.238808 1.883867,-0.170223 0.266572,-0.221994 0.502511,-0.572423 0.702405,-1.051958 l 1.713509,-4.110612 c 0.343792,0.142738 0.685909,0.288901 1.026285,0.438366 l -1.629853,3.705033 c -0.356448,0.810289 -0.745676,1.38644 -1.15431,1.728469 -0.751943,0.62553 -1.660348,0.703825 -2.766998,0.286891 -1.105262,-0.416411 -1.728469,-1.070376 -1.882772,-2.029863 -0.08422,-0.523671 -0.0037,-1.212126 0.252752,-2.054978 l 1.173255,-3.855726 c 0.358203,0.107604 0.715033,0.219214 1.070427,0.334707 z m 1.974422,0.686428 z"
       id="path868"
       inkscape:original-d="m 57.242661,62.839539 v 4.433593 q 0,0.78125 0.292968,1.298828 0.434571,0.78125 1.464844,0.78125 1.235352,0 1.679688,-0.844726 0.239257,-0.458984 0.239257,-1.235352 v -4.433593 h 0.986328 v 4.02832 q 0,1.323242 -0.356445,2.036133 -0.654297,1.298828 -2.470703,1.298828 -1.816406,0 -2.46582,-1.298828 -0.356446,-0.712891 -0.356446,-2.036133 v -4.02832 z m 1.84082,0 z" />
    <path
       d="m 65.15457,60.846611 c 0.329948,0.156886 0.658113,0.316794 0.984433,0.479609 l -2.82398,5.683572 c 1.096016,0.542643 2.176362,1.120624 3.237834,1.727805 l -0.428117,0.739695 c -1.3276,-0.75645 -2.683324,-1.467137 -4.060647,-2.119566 z"
       id="path870"
       inkscape:original-d="m 63.409653,62.839539 h 0.971679 v 6.318359 h 3.632813 v 0.854492 h -4.604492 z" />
  </g>
  <g
     aria-label="DIGITAL"
     id="text973"
     style="font-size:10px;font-family:'IAWriter Quattro', Helvetica, Arial, sans-serif;dominant-baseline:hanging;stroke-width:1.5"
     transform="rotate(-25.686125,6.9141019,74.599057)">
    <path
       d="m 38.473276,81.297778 c 0.288918,0.216102 0.545408,0.371987 0.774399,0.46411 0.410578,0.160037 0.836629,0.189743 1.279732,0.0826 0.354135,-0.08665 0.713352,-0.272886 1.076619,-0.56143 0.215367,-0.173569 0.396372,-0.349624 0.54282,-0.528967 0.562415,-0.688743 0.838487,-1.358107 0.811533,-2.010199 C 42.934489,78.093939 42.54133,77.46292 41.745175,76.874808 41.1621,76.444096 40.559226,76.021466 39.931731,75.614192 l -2.984126,4.617677 c 0.511898,0.32903 1.01882,0.6868 1.525671,1.06591 z m 0.786279,-7.082293 c 1.14329,0.677465 2.200382,1.404643 3.19437,2.146697 1.012364,0.755774 1.520233,1.625441 1.581604,2.581914 0.05011,0.856216 -0.250344,1.667106 -0.878497,2.426204 -0.487198,0.588758 -1.056108,1.010105 -1.707871,1.27274 -1.157219,0.468182 -2.254692,0.241605 -3.311453,-0.559867 -0.827832,-0.627848 -1.64602,-1.192804 -2.477424,-1.660384 z"
       id="path975" />
    <path
       d="m 46.697456,79.782242 c 0.09682,0.0799 0.193296,0.1593 0.289449,0.238147 0.195365,0.152983 0.38921,0.304769 0.581703,0.454833 L 43.0876,86.102129 c -0.209902,-0.17039 -0.41627,-0.340924 -0.619271,-0.511079 -0.10507,-0.08437 -0.20952,-0.168672 -0.313387,-0.252854 z"
       id="path977" />
    <path
       d="m 51.651827,83.08227 c 0.555403,0.300913 0.976305,0.624327 1.303094,1.017391 0.09999,0.119308 0.188053,0.244528 0.264574,0.377037 0,0 0,0 0,0 0.251681,0.503729 0.387477,1.12439 0.3396,1.86909 -0.300206,-0.07459 -0.596504,-0.16304 -0.887916,-0.265884 -0.02224,-0.0074 -0.04446,-0.01479 -0.06667,-0.02228 0.05424,-0.533486 -0.04765,-0.971131 -0.289185,-1.322582 -0.2423,-0.357372 -0.594865,-0.64805 -1.08417,-0.912845 -0.579505,-0.313609 -1.188145,-0.41007 -1.874751,-0.265951 -0.679277,0.14514 -1.322117,0.601172 -1.888283,1.412816 -0.488854,0.700811 -0.706565,1.402644 -0.604225,2.113974 0.103084,0.701388 0.642468,1.374209 1.66207,1.909632 0.7796,0.409392 1.546894,0.545287 2.218805,0.412522 0.410415,-0.08129 0.74373,-0.292118 1.001966,-0.622335 0,0 0,0 0,0 0,0 1e-6,0 1e-6,0 0.171657,-0.217387 0.307589,-0.483901 0.416234,-0.798326 -0.04292,-0.014 -0.08578,-0.02824 -0.128583,-0.04273 -0.825579,-0.285513 -1.616335,-0.638738 -2.378219,-1.041242 l 0.375407,-0.709049 c 0.729546,0.386652 1.482073,0.722123 2.263532,0.987979 0.36858,0.126693 0.742666,0.233605 1.120839,0.3215 l -0.862526,3.720714 c -0.309875,-0.0698 -0.619131,-0.148579 -0.927433,-0.236505 -0.02785,-0.327038 -0.0485,-0.653647 -0.06184,-0.97966 -0.08984,0.03193 -0.17832,0.06084 -0.265281,0.08682 -0.443906,0.131878 -0.838447,0.186877 -1.165399,0.177237 -0.656753,-0.01395 -1.426748,-0.233813 -2.240169,-0.671392 -1.053073,-0.566499 -1.743782,-1.343337 -2.081359,-2.243806 -0.317481,-1.059153 -0.0586,-2.066807 0.666598,-3.035194 0.725627,-0.968963 1.604238,-1.497186 2.586173,-1.675748 0.932668,-0.171705 1.775021,-0.0012 2.587109,0.438821 z m -0.128491,-0.0817 z"
       id="path979" />
    <path
       d="m 55.59296,84.477529 c 0.27856,0.01639 0.560701,0.01986 0.845136,0.01111 l 0.146754,7.149819 c -0.485246,0.007 -0.972514,-0.0061 -1.460514,-0.04017 z"
       id="path981" />
    <path
       d="m 62.466825,82.717216 0.398329,0.750347 c -0.717725,0.380119 -1.450381,0.71585 -2.200566,0.999467 -0.02958,0.01135 -0.05919,0.0226 -0.08885,0.03375 l 2.270376,5.898277 c -0.443749,0.174347 -0.895346,0.33143 -1.353482,0.470541 L 59.6648,84.808014 c -0.751771,0.224896 -1.519762,0.384505 -2.284732,0.468419 l -0.08737,-0.849532 c 1.02631,-0.115521 2.065496,-0.377745 3.059096,-0.755056 0.719259,-0.26786 1.423403,-0.588645 2.115027,-0.954629 z"
       id="path983" />
    <path
       d="m 68.321308,83.970582 c -0.97868,-0.59048 -1.930246,-1.207168 -2.849053,-1.852849 0.249642,1.107908 0.458452,2.229698 0.619427,3.366654 0.763703,-0.473279 1.506126,-0.98022 2.229626,-1.513805 z m -3.88661,-2.431062 c 0.317295,-0.211227 0.632343,-0.430923 0.94542,-0.658266 2.129364,1.404455 4.428167,2.654809 6.823597,3.787672 -0.348759,0.289382 -0.70302,0.574843 -1.063034,0.855636 -0.691004,-0.371272 -1.372105,-0.753187 -2.041593,-1.146585 -0.927007,0.695859 -1.88702,1.351891 -2.884787,1.95396 0.09588,0.774226 0.16925,1.555537 0.217986,2.344329 -0.384702,0.215516 -0.775338,0.424278 -1.172112,0.625675 0.0056,-2.669488 -0.298334,-5.251805 -0.825477,-7.762421 z"
       id="path985" />
    <path
       d="m 68.309866,78.512135 c 0.26829,-0.236691 0.535723,-0.477326 0.802489,-0.721337 l 4.286609,4.69774 c 1.111913,-1.012913 2.170757,-2.058323 3.186504,-3.106547 l 0.608446,0.600458 c -1.292069,1.340805 -2.662878,2.680283 -4.132734,3.957996 z"
       id="path987" />
  </g>
  <text
     xml:space="preserve"
     transform="matrix(1.5,0,0,1.5,-72.40099,-63.118812)"
     id="text990"
     style="font-style:normal;font-variant:normal;font-weight:normal;font-stretch:normal;font-size:10px;line-height:normal;font-family:'IAWriter Quattro', Helvetica, Arial, sans-serif;white-space:pre;shape-inside:url(#rect992);fill:#000000" />
  <text
     xml:space="preserve"
     style="font-style:normal;font-variant:normal;font-weight:normal;font-stretch:normal;font-size:10px;line-height:normal;font-family:'IAWriter Quattro', Helvetica, Arial, sans-serif;fill:#000000;stroke-width:1.5"
     x="26.918318"
     y="90.037132"
     id="text351"><tspan
       sodipodi:role="line"
       id="tspan349"
       style="stroke-width:1.5"
       x="26.918318"
       y="90.037132">CAREFUL</tspan></text>
</svg>
