<?xml version="1.0" encoding="UTF-8" standalone="no"?>
<!-- Created with Inkscape (http://www.inkscape.org/) -->

<svg
   xmlns:dc="http://purl.org/dc/elements/1.1/"
   xmlns:cc="http://creativecommons.org/ns#"
   xmlns:rdf="http://www.w3.org/1999/02/22-rdf-syntax-ns#"
   xmlns:svg="http://www.w3.org/2000/svg"
   xmlns="http://www.w3.org/2000/svg"
   xmlns:sodipodi="http://sodipodi.sourceforge.net/DTD/sodipodi-0.dtd"
   xmlns:inkscape="http://www.inkscape.org/namespaces/inkscape"
   width="42"
   height="42"
   viewBox="0 0 11.1125 11.1125"
   version="1.1"
   id="svg1925"
   inkscape:version="0.92.3 (2405546, 2018-03-11)"
   sodipodi:docname="people_logo.svg">
  <defs
     id="defs1919" />
  <sodipodi:namedview
     id="base"
     pagecolor="#ffffff"
     bordercolor="#666666"
     borderopacity="1.0"
     inkscape:pageopacity="0.0"
     inkscape:pageshadow="2"
     inkscape:zoom="5.6"
     inkscape:cx="6.7100353"
     inkscape:cy="21.827111"
     inkscape:document-units="mm"
     inkscape:current-layer="layer1"
     showgrid="false"
     units="px"
     inkscape:window-width="1334"
     inkscape:window-height="737"
     inkscape:window-x="32"
     inkscape:window-y="0"
     inkscape:window-maximized="1" />
  <metadata
     id="metadata1922">
    <rdf:RDF>
      <cc:Work
         rdf:about="">
        <dc:format>image/svg+xml</dc:format>
        <dc:type
           rdf:resource="http://purl.org/dc/dcmitype/StillImage" />
        <dc:title></dc:title>
      </cc:Work>
    </rdf:RDF>
  </metadata>
  <g
     inkscape:label="Layer 1"
     inkscape:groupmode="layer"
     id="layer1"
     transform="translate(0,-285.8875)">
    <path
       style="fill:none;fill-opacity:1;stroke:#dc143c;stroke-width:0.396875;stroke-linecap:butt;stroke-linejoin:miter;stroke-miterlimit:4;stroke-dasharray:none;stroke-opacity:1"
       d="m 4.225132,288.80094 c -0.29826,0.81584 -0.194026,1.60633 0.364602,2.23231 -0.02501,-2.51539 2.689744,-1.9411 3.721683,-2.77306 -0.443559,-0.43592 -1.299701,-0.67616 -1.988108,-0.60314 -0.618417,1.37641 -2.193448,0.35317 -2.254042,-0.86814 -0.02209,-0.0965 -0.151213,-0.28411 -0.316185,-0.20099 -0.582998,0.29376 0.499273,1.94059 0.47205,2.21302 z"
       id="path6087-0-1-5-3"
       inkscape:connector-curvature="0" />
    <circle
       style="opacity:1;fill:none;fill-opacity:1;stroke:#dc143c;stroke-width:0.396875;stroke-miterlimit:4;stroke-dasharray:none;stroke-opacity:1"
       id="path6114-2-3-2-6"
       cx="5.3712859"
       cy="287.20422"
       r="0.40395004" />
    <path
       style="fill:none;fill-opacity:1;stroke:#dc143c;stroke-width:0.396875;stroke-linecap:butt;stroke-linejoin:miter;stroke-miterlimit:4;stroke-dasharray:none;stroke-opacity:1"
       d="m 7.679899,288.95327 c -0.862641,-0.0143 -1.568627,0.34584 -1.970495,1.08392 2.347777,-0.85436 2.706265,1.91764 3.826255,2.62455 0.261842,-0.56587 0.204172,-1.45959 -0.09154,-2.09032 -1.493406,-0.13377 -1.055056,-1.96987 0.06887,-2.43078 0.08308,-0.0529 0.216183,-0.23765 0.08385,-0.36713 -0.467652,-0.45757 -1.652782,1.1157 -1.916944,1.17976 z"
       id="path6087-9-4-5-7-7"
       inkscape:connector-curvature="0" />
    <path
       style="fill:none;fill-opacity:1;stroke:#dc143c;stroke-width:0.396875;stroke-linecap:butt;stroke-linejoin:miter;stroke-miterlimit:4;stroke-dasharray:none;stroke-opacity:1"
       d="m 8.591781,292.27696 c -0.251481,-0.8317 -0.808476,-1.39811 -1.628916,-1.55677 1.528039,1.98911 -0.979469,3.18449 -1.302943,4.47576 0.614799,0.0773 1.441035,-0.25259 1.945795,-0.72995 -0.332462,-1.47331 1.536058,-1.61699 2.316585,-0.68071 0.07545,0.0634 0.290831,0.13432 0.372447,-0.0324 0.288424,-0.58906 -1.56132,-1.24231 -1.702968,-1.47596 z"
       id="path6087-91-8-1-4-5"
       inkscape:connector-curvature="0" />
    <path
       style="fill:none;fill-opacity:1;stroke:#dc143c;stroke-width:0.396875;stroke-linecap:butt;stroke-linejoin:miter;stroke-miterlimit:4;stroke-dasharray:none;stroke-opacity:1"
       d="m 5.828041,294.12148 c 0.697139,-0.51222 1.045391,-1.22827 0.924993,-2.06137 -1.363362,2.10716 -3.306421,0.11212 -4.622959,0.22773 0.12923,0.61064 0.709466,1.28901 1.32251,1.61296 1.272025,-0.79978 2.019619,0.93192 1.397981,1.9821 -0.03471,0.0926 -0.03051,0.32093 0.152514,0.34395 0.646793,0.0814 0.652394,-1.89387 0.824961,-2.10537 z"
       id="path6087-4-9-9-2-3"
       inkscape:connector-curvature="0" />
    <path
       style="fill:none;fill-opacity:1;stroke:#dc143c;stroke-width:0.396875;stroke-linecap:butt;stroke-linejoin:miter;stroke-miterlimit:4;stroke-dasharray:none;stroke-opacity:1"
       d="m 3.014546,292.09931 c 0.680556,0.53439 1.459511,0.67466 2.221112,0.32867 -2.385468,-0.74077 -1.017185,-3.17245 -1.489905,-4.41612 -0.546946,0.29331 -1.034356,1.0422 -1.174624,1.72531 1.113132,1.01219 -0.333038,2.2132 -1.505997,1.90005 -0.09793,-0.008 -0.314553,0.0588 -0.28613,0.24244 0.100446,0.64902 1.986282,0.11069 2.235544,0.21965 z"
       id="path6087-7-9-9-8-5"
       inkscape:connector-curvature="0" />
    <circle
       style="opacity:1;fill:none;fill-opacity:1;stroke:#dc143c;stroke-width:0.396875;stroke-miterlimit:4;stroke-dasharray:none;stroke-opacity:1"
       id="path6114-2-3-2-3-6"
       cx="9.5682764"
       cy="289.47324"
       r="0.40395004" />
    <circle
       style="opacity:1;fill:none;fill-opacity:1;stroke:#dc143c;stroke-width:0.396875;stroke-miterlimit:4;stroke-dasharray:none;stroke-opacity:1"
       id="path6114-2-3-2-3-7-2"
       cx="8.7370768"
       cy="294.20544"
       r="0.40395004" />
    <circle
       style="opacity:1;fill:none;fill-opacity:1;stroke:#dc143c;stroke-width:0.39687499;stroke-miterlimit:4;stroke-dasharray:none;stroke-opacity:1"
       id="path6114-2-3-2-3-7-5-9"
       cx="3.9132624"
       cy="294.83026"
       r="0.40395004" />
    <circle
       style="opacity:1;fill:none;fill-opacity:1;stroke:#dc143c;stroke-width:0.396875;stroke-miterlimit:4;stroke-dasharray:none;stroke-opacity:1"
       id="path6114-2-3-2-3-7-9-12"
       cx="1.8165754"
       cy="290.46979"
       r="0.40395004" />
  </g>
</svg>
