<?xml version="1.0" encoding="utf-8"?>
<!-- Generator: Adobe Illustrator 23.0.6, SVG Export Plug-In . SVG Version: 6.00 Build 0)  -->
<svg version="1.1" id="Laag_1" xmlns="http://www.w3.org/2000/svg" xmlns:xlink="http://www.w3.org/1999/xlink" x="0px" y="0px"
	 viewBox="0 0 670.8 391.2" style="enable-background:new 0 0 670.8 391.2;" xml:space="preserve">
<style type="text/css">
	.st0{opacity:0.7;}
	.st1{fill:#FEFFFF;}
	.st2{fill:#017DA9;}
	.st3{fill:#FFFFFF;}
</style>
<g class="st0">
	<g>
		<path d="M407.9,225.3c-0.5,0.2-1.4-0.1-2-0.4c-5.8-2.5-11.8-4.6-18.1-5.3c-6.2-0.6-12.3-0.1-18.4,1.5c5-5.6,11.4-8.5,18.5-9.9
			c2.9-0.6,5.9-0.7,8.8-1c1.7-0.2,3.1,0.2,4.6,1.4c3.2,2.5,6.8,2.2,10.4,0.8c1.4-0.6,2.6-1.7,2.8-3.4c0.2-1.8-1.1-2.8-2.5-3.6
			c-3.3-1.9-8.7-1.4-11.4,1.3c-1.2,1.2-2.3,1.7-4,1.7c-10,0-19.1,2.6-27.3,9.1c2-15.7,9-28.2,20.6-38.3c1.3-1.1,2.6-1.8,4.4-2.1
			c4.6-0.6,7.4-3.7,9.2-7.8c0.7-1.4,1-3.2-0.3-4.3c-1.1-1-2.7-0.7-4-0.1c-4,1.7-7,4.4-8,8.6c-0.5,2.1-1.4,3.5-3,4.8
			c-10.9,9.4-17.9,21.1-20.3,35.4c-1.4,8.1-3.5,9.7-11.7,9.9c-7.3,0.2-14.6,0.1-21.9-1.2c-0.7-1,0.8-2.1-0.3-3.3
			c0,0-0.2-0.3-0.4-0.3c-1.8-0.6-3.9-0.9-5.4,0c-5.2,2.9-10.1,0.7-15-0.6c-18.2-4.8-35.7-11.6-54-16c-6.4-1.6-12.9-2.5-18.2-7.6
			c12.2-5.3,24.8-9.9,36.6-16.9c3.7,6,7.9,11.4,13.7,15.3c2.9,1.9,5.8,3.7,7.6,6.9c1.3,2.3,3.9,3.7,6.8,3.3c1.1-0.2,1.7-1.1,1.4-2.2
			c-0.8-3.1-3-5.6-6-5.8c-9.3-0.7-13.8-7.5-19-13.7c5.5,3.8,11.5,6,18.1,6.9c0.6,0.1,1.2,0.6,1.7,1.1c0.5,0.5,0.8,1.2,1.4,1.6
			c2.5,1.7,5.1,2.3,7.9,0.7c1.6-0.9,1.9-2.6,0.8-4c-1.8-2.5-4.7-3.6-7.5-2.6c-9.6,3.7-15.8-2.2-22.6-7.4c5.2,0.6,8.9-4.2,14.2-3.3
			c1.1,0.2,2.3-0.9,3.1-2c0.8-1.2,1.7-2.5,0.5-3.8c-1.2-1.3-2.6-0.5-3.8,0.2c-1.5,0.8-1.8,2.5-2.8,3.6c-3.2,3.4-9.9,4.2-14.6,1.7
			c2.1-8.7,7-15.4,14.1-20.8c1.1-0.8,2.2-0.9,3.5-1c3.1-0.4,5.5-2.1,6.9-4.9c0.6-1.1,1-2.4,0-3.5c-1.1-1.2-2.4-1.2-3.9-0.7
			c-3,1.1-5.1,3-6,6c-0.3,1.1-0.5,2.1-1.5,2.9c-5.3,4-9.6,8.9-13,14.7c0.9-7.1,1.6-14.3,7.7-19.3c2.4-2,3.4-4.7,3.3-7.9
			c0-1-0.1-2-1.2-2.5c-1.2-0.5-2.2,0.1-3,1c-1.5,1.9-2.8,4.1-2.6,6.5c0.2,2.7-0.7,4.9-1.8,7.2c-3.2,6.6-4.5,13.6-4.6,20.8
			c0,1.6-0.3,2.5-1.8,3.3c-12.3,6.9-25.4,11.8-38.4,17.1c-2.7,1.1-5.8,0-8.4-0.5c1.6-12.7,5.7-24.2,12.7-34.8
			c5.3-8.1,9.3-17,13.3-26.3c7.1,2.8,14.3,3.6,21.6,2.7c3-0.3,5.9-1,9.1,0.1c3,1.1,6.1,0.6,8.4-2.1c0.7-0.9,0.6-2.1-0.3-2.6
			c-3-1.9-6.7-2.2-9.1,0c-3.5,3.1-7.4,3.1-11.3,3.4c-4.3,0.3-8.7,0-13.9-1.8c8.2-0.5,14.9-2.7,20.9-6.6c1.3-0.9,2.7-0.1,4.1-0.2
			c3.5-0.3,6.3-1.6,7.3-5.2c0.4-1.3,0.1-2.7-1.4-3.1c-3.6-1-7,0.2-8.4,3.2c-2.4,5.4-7.3,6.6-11.9,8.3c-3.6,1.4-7.5,2.1-12.8,1.2
			c6.4-3,6.4-9.8,11.5-12.8c0.6-0.3,0.8-1.5,0.9-2.3c0.1-1.7,0.8-4.1-1.7-4.4c-2.3-0.3-3.2,1.9-3.2,3.7c0,3-0.3,5.8-1.9,8.4
			c-2.1,3.3-4.8,5.8-8.8,7.2c-3.7-6.8-3.7-14-2.6-21.3c0.5-3.5,1.2-7,4.3-9.7c1.8-1.5,2.2-4.2,2-6.7c-0.1-1.6-0.4-3.2-2.1-3.8
			c-1.7-0.5-2.9,0.6-3.8,2c-1.5,2.3-2.5,5-1.5,7.6c1.1,2.9,0.7,5.4,0,8.2c-1.5,6.2-1.6,12.4-0.5,18.7c-3.3-5.4-6.6-10.5-4.5-17.5
			c2.6-8.5,3.2-17.3,4.3-26.2c3.8-0.9,7.3-2.2,10-5.1c1.2-1.3,2.3-2.7,1.6-4.5c-0.8-1.8-2.7-1.1-4.1-1.1c-2.6,0-4.6,1.8-7.4,2.8
			V61.9c2.9-0.5,6.2-0.9,9.5-1.5c10.1-1.9,18.7-6.8,26.4-13.3c1.7-1.4,3.4-2.4,5.9-2.7c4.4-0.6,7.7-3.2,9.8-7.2c0.7-1.3,1-2.8,0.1-4
			c-0.9-1.2-2.4-1.3-3.9-0.9c-4.5,1.5-8,4-9.5,8.7c-0.2,0.8-0.4,1.8-0.9,2.3c-9.8,8.9-21,15-34.4,15.9c-0.7-1.1,0.1-1.5,0.6-1.8
			c8.4-7,12.8-16.2,14.7-26.7c0.4-2,1-3.5,2.8-4.8c3.2-2.4,4.2-7.9,2.6-11.6c-1.4-3.2-4.5-3.7-6.5-0.8c-2.1,3-3.2,6.6-1.6,10
			c1.5,3.3,1.1,6.2,0.3,9.3C262,42.1,257.5,49.9,250,56c-3,2.5-4.5,2.1-5.6-1.7c-4-12.8-1.5-25,3.8-36.8c0.6-1.4,1.9-1.6,2.8-2.3
			c4.9-3.8,6.4-10.7,3.1-15.2h-1.7c-4.1,2.7-7.3,6.6-6.5,11.4c0.8,5-1.1,8.9-2.5,13.2c-0.8,2.4-1.4,4.8-2,7.3
			c-1.7,7.9-1.1,15.7,0.5,23.6c-5.4-5.4-8.4-11.9-9.6-19.2c-0.9-5.4-2.1-10.9,1.5-16.1c1.8-2.6,1-6-0.4-8.9
			c-0.7-1.4-1.8-2.7-3.5-2.6c-1.6,0-2.5,1.2-3.2,2.4c-1.9,3.6-2.3,7.8,0.3,10.8c2.5,2.8,2.5,5.7,2.6,8.8c0.1,1.5,0.2,3.1,0.4,4.6
			c0.8,7.3,3.7,13.8,8.2,20c-15.8-2.2-28-9.5-37.7-21.2c-1.2-1.4-1.9-2.8-2.2-4.8c-0.6-4.7-3.8-7.7-7.9-9.7c-1.2-0.6-2.8-0.8-4,0.3
			c-1.2,1.1-0.9,2.7-0.4,4c1.5,4.2,4.2,7.4,8.6,8.6c2.1,0.6,3.4,1.5,4.7,3.1c9.2,11.3,20.8,18.7,35.3,21.3c1.9,0.3,3.8,0.6,5.5,2.1
			c-2,2.5-4.5,4.9-4.4,8.3c0,1.4-0.4,2.4-1.2,3.4c-3.9,4.6-8,9.2-13.3,12.3c-15.4,9-16.4,9.6-28.6-6.2c-2.6-3.4-4.7-7-3.5-11.9
			c0.8-3.2-2.8-7.3-5.7-8c-1.7-0.4-2.9,0.4-3.4,1.8c-1.1,3.7,0.5,6.6,3.2,8.9c0.5,0.4,1.2,0.6,1.8,1c0.7,0.5,1.6,0.9,1.8,1.6
			c3,7,7.2,13.1,13,18.2c-13.8-3.4-26.1-9-33.1-22.6c3.6-5.6,6.1-12,8.2-18.5c0.4-1.4,0.8-2.7,2.4-3.7c4.1-2.5,6.6-9.3,5.5-14.1
			c-0.3-1.4-0.7-2.8-2.3-3.2c-1.5-0.4-2.8,0.3-3.7,1.4c-3.2,3.9-4.6,8.4-3.5,13.4c0.3,1.2,0.8,2.4,0.4,3.7c-2,6.5-4.4,12.7-8,18.5
			c-1.3,2.1-2.6,2.2-4.5,0.6c2.7-8.5,3.5-17.3,3.3-26.1c0-1.2,0-2.2,1-3.4c3.8-4.2,4.1-12.5,1-17.3c-0.8-1.2-1.8-2.4-3.3-2.4
			c-1.6,0.1-2.7,1.3-3.3,2.9c-2,5-1.9,10.1,0.8,14.6c1.6,2.8,2.1,5.4,1.9,8.4c-0.2,2.9-0.3,5.9-0.7,8.8c-0.9,7.9-3,15.5-7.8,22.2
			c-0.3-6.8-2.2-13-5.1-18.9c-1.1-2.3-1.8-4.4-1.6-7.1c0.3-3.9-1.9-6.9-5.1-9.2c-0.8-0.6-1.7-1.1-2.7-0.5c-1.1,0.6-1.3,1.8-1.2,2.9
			c0.3,2.7,1.2,5.5,3.4,7.1c6.5,4.9,8,12.3,9.6,19.5c0.8,3.6,0.9,7.5-0.6,11.8c-7.6-4.6-15.8-7.7-19.4-16.4c-0.4-1-1.2-1.9-2.2-2.5
			c-5.7-3.7-9.2-9-10.5-15.7c-1.1-5.7-3.6-10.6-8.2-14.3c-1.1-0.9-2.4-1.7-3.9-1.1c-1.6,0.7-1.4,2.3-1.4,3.7
			c-0.1,6.4,4.9,13.8,11,16c1.1,0.4,1.5,1,2.1,1.8c2,3,4.1,6,6.2,9c0.6,0.9,1.3,1.8,0.5,3c-1.4,2.3-1.1,5.1-1.3,8
			c-3.4-1.9-6.1-3.6-7.2-7.5c-1.8-6.3-6.8-9.3-13.5-9.1c-2.7,0.1-3.4,1.6-2.9,3.9c0.6,2.8,2.9,4.4,4.7,6.3
			c4.9,5.4,10.4,10.4,11.6,18.2c0.4,2.5,1.2,4.9,1.4,7.4c0.5,6.4,1.1,12.8-1.8,19c-1.8-9.7-11.8-14-14.7-23
			c-0.9-2.7-4.3-4.4-7.8-3.8c-0.9,0.1-1.5,1-1.4,1.9c0.5,3.4,2.7,5.7,5.7,6.7c9.2,3.4,13.3,11,16.4,19.4c0.5,1.4,1,2.9,0,4.6
			c-13.8-0.4-25.3-6.6-35.9-14.9c-1.7-1.3-1.9-3.3-1.2-5.7c1.6-5.5-0.5-10.2-4.2-14.2c-1.1-1.2-2.6-1.9-4.2-1.2
			c-1.6,0.7-2,2.3-2,3.9c0,1.4,0.2,2.9,0.3,4.1c-5.2-0.4-9.6-2.1-12.9-5.9c-0.3-0.4-0.9-0.7-1.4-0.9c-1.6-0.6-3.3-1.3-4.8-0.1
			c-1.6,1.2-1.2,3.1-0.7,4.7c1.5,4.8,4.4,8.7,9,10.6c6.5,2.6,8.3,8.8,12.7,14.1c-2,0-3-0.1-4,0c-1.8,0.1-3.5,0.6-4,2.5
			c-0.5,2,0.9,3.2,2.3,4.2c2.2,1.6,4.7,2.6,7.4,2.7c1.2,0.1,2.6-0.2,3.1,1.4c1.1,3.5,2.6,6.9,1.7,10.9c-5.5-9-17.1-10.1-22.8-18.6
			c-0.2-0.3-0.7-0.5-1.1-0.7c-2.8-1.5-5.7-2.5-8.9-1.2c-0.9,0.3-0.9,1.5-0.6,2.2c1.5,3.1,4.3,4.2,7.4,5.1c2.2,0.7,4.5-0.3,6.6,0.8
			c5.8,3,11.3,6.3,15.7,11.2c1.9,2.2,3.7,4.4,4.5,7.3c-14.2,4.6-32.9-0.6-44.6-5.7c-0.9-0.4-1.6-1.6-2.4-2.3
			c-4.3-4.2-9.4-6.5-15.5-6.5c-1.5,0-2.9,0.2-3.6,1.7c-0.6,1.5,0.2,2.8,1.2,3.8c4.2,4.4,9.6,7.6,15.3,6.6c5.2-0.9,9.2,0.9,13.6,2.2
			c5,1.5,10,2.8,15.1,3.8c5,1,10.1,0.1,15.9,1c-6,3.2-11.7,4.9-17.5,5.4c-6.1,0.5-12.3,2.1-18.4-1.6c-3.3-2-7.7-1.4-11.4,0.2
			c-1.3,0.5-2.5,1.5-2.6,3.1c-0.1,1.6,1,2.6,2.3,3.2c4.6,2.2,9.6,2.8,13.7,0c3-2,5.8-2.2,8.9-2.3c11-0.4,21.5-2.3,30.8-8.7
			c1.7-1.2,3-0.9,4.6,0c7,3.8,14.1,7.6,21.2,11.4c1.1,0.6,2.2,1.1,2.7,2.5c2.6,7.2,2.9,14.5,1.4,22.7c-2.8-4.2-6.3-6.3-10.6-7.1
			c-1.2-0.2-1.6-0.9-2.1-2.1c-1.5-3.2-4.4-2.3-6.9-1.3c-1.9,0.8-3.5,2.5-2.3,4.7c1.4,2.4,3.8,1.8,6,1c5.8-2.1,12.2,1.2,14.4,7.2
			c0.7,1.9,0.5,3-1.2,4.2c-8.5,5.9-17.7,9.5-28.2,9.7c-4.3,0.1-7-2.1-8.8-5c-4-6.7-9-12.6-14.5-18c-1.1-1-2.4-1.9-2.4-3.8
			c-0.1-4.2-2.8-6.9-5.9-9.2c-2.5-1.8-5.9-4.1-8.3-1.5c-2.6,2.7,0.3,5.7,2.2,8c2.7,3.3,7.3,3.6,10.4,5.8c6.9,5,12.4,11.6,16.2,19.6
			c-1.9,0.6-3.3,0.9-4.7-0.4c-6.2-6.1-13.8-10.1-21.5-14c-1-0.5-1.8-1-2.3-2.2c-2.4-5.3-9.2-9.1-15.1-8.6c-1.5,0.1-3.3,0.1-3.8,2
			c-0.5,1.6,0.1,3.1,1.2,4.3c3.7,3.8,8.3,6.1,13.6,5.7c3.7-0.3,6.3,1,9.3,3.1c-2.5-0.1-5-1.7-6.6,0.8c-1.5,2.5,0.4,4.6,1.8,6.4
			c2.5,3.2,5.7,5.4,9.9,5.8c2.6,0.2,4.1,1.6,5.5,4c-4.2-0.3-8.9,0.8-11.5-1c-5.3-3.6-10.7-1.4-15.9-1.7c-3.4-0.2-4.2,3-1.9,5.7
			c2.1,2.4,5,3.4,8,4.4c2.9,1,5.7-0.9,8.3,0c6,2.1,11.9,4.7,17.3,8.9c-4.7,2.6-9.5,4-14.3,4.8c-7.2,1.2-14.3,3.5-21.9,0.7
			c-4.6-1.7-9.7-0.9-14.4,1.3c-1.5,0.7-2.8,1.7-2.6,3.4c0.2,1.6,1.5,2.4,2.9,2.7c6.8,1.7,13.6,2.6,19.3-2.9c0.9-0.9,1.9-1.1,3-1.2
			c10.5-0.9,20.8-2.7,30.3-6.9c1.8,2.2,1.1,3.6-0.7,5c-4.4,3.6-9.1,6.5-14.1,9.2c-2.1,1.1-4.2,1.7-6.8,1.5c-4.8-0.3-9,1.8-12.2,5.5
			c-1,1.1-1.4,2.5-0.8,3.9c0.6,1.5,2.1,1.7,3.5,1.8c5.1,0.4,11-3.1,13.3-7.9c0.4-0.8,0.8-1.5,1.5-1.9c7.4-3.6,14.5-7.8,20.8-13.6
			c1.8,2.1,3.1,3.9,4.7,5.5c2.6,2.7,2.3,5,0.2,8.1c-5.3,7.6-12.2,13.2-20.2,17.5c-0.7,0.4-1.6,0.9-2.3,0.7
			c-4.4-0.9-7.8,1.7-11.5,3.2c-1.4,0.6-2.7,1.2-2.5,2.9c0.3,1.8,0.5,3.8,2.6,4.5c3.9,1.2,8.1,2.5,12,1c4.4-1.6,7.8,0.2,11.9,1.1
			c-0.4,0.9-0.6,1.6-1,1.8c-3.8,1.8-7.2,4.1-9.7,7.7c-0.6,0.9-1.9,0.7-3-0.1c-4.8-3.5-9.8-2.4-14.7-0.2c-1.6,0.7-3.1,1.9-2.9,3.8
			c0.2,2.1,2,2.8,3.9,3.2c5.6,1.1,10.5-0.1,14.8-4.1c1.2,2.2-1,5.6,2.3,6.3c3.1,0.7,5.2-1.7,7.2-3.6c0.3-0.3,0.6-0.6,0.7-1
			c1.2-2.4,3.2-2.9,5.6-2.7c7,0.7,13.8,2.2,20.3,5.3c2.7,1.3,3.5,3,3.3,5.9c-0.6,8.9-4,16.8-8.6,24.4c-1.1,1.8-2.5,3-4.5,4.1
			c-3.1,1.8-8.2,2.5-6.6,8.4c0.5,1.7-0.9,4.1,1.6,5.1c2.5,1,4.5-0.6,5.8-2.4c4.5-6.6,11-6.7,17.9-5.9c-1.7,6.9-7.4,10.2-13.4,9.5
			c-4.5-0.5-7.9,1.1-10.9,4.1c-0.9,0.9-1.4,2.1-0.8,3.5c0.6,1.3,1.7,1.3,2.9,1.3c3.9-0.1,7.2-1.5,9.6-4.6c2.2-2.8,5.1-3.4,8.6-4.3
			c-0.9,3-0.5,5.5,0.2,7.9c0.4,1.4,1.1,2.6,2.7,2.9c1.6,0.2,2.7-0.7,3.5-1.9c1.5-2.3,2.6-4.8,2.3-7.5c-0.4-3.7,1.4-4.5,4.7-4.4
			c12.7,0.3,12.5,0.3,12,12.6c-0.2,6.4-0.9,13.1-6.4,18c-2,1.8-2.3,4.8-2.1,7.5c0.1,1.2,0.3,2.3,1.6,2.6c1.2,0.3,2.2-0.2,3-1.1
			c1.8-2.1,3.5-4.7,2.9-7.2c-1.2-4.9,0.7-9.1,1.9-13.5c1.1-4.3,0.7-8.7,1.6-13.1c5.1,8.9,9.9,17.7,6.5,28.5
			c-0.9,2.9-0.2,5.8,1.1,8.6c0.6,1.2,1.4,2.1,2.9,2c1.4-0.1,1.9-1,2.3-2.1c1.4-4.1,1.2-8.1-1.7-11.5c-0.8-1-1.6-1.7-1.7-3.1
			c-0.9-10.1-3.7-19.6-10.7-27.4c6.5-10.3,13.9-19.7,21.2-29.1c0.7-1,1.6-1.6,2.9-0.6c0.6,5.5-0.5,10.8-2.2,16.1
			c-0.4,1.1-0.7,2.1-2,2.4c-3.3,0.7-3.9,3.3-4.1,6.1c-0.3,4.4,1.7,8,4.4,8c2.7,0,5.1-3.8,3.9-8.1c-1.3-4.4,0-8.2,1-12.2
			c0.8-3.2,0.9-6.4,1-9.6c0-1-0.4-2.4,1.7-2.8c2.4,4.7,3.2,9.9,4,15c0.4,2.5,1.8,5.1,0.5,7.4c-2.8,5.1-0.6,9.5,1.3,14
			c0.6,1.4,1.6,2.8,3.8,2.2c1.7-3.7,0.9-7.5-0.8-10.8c-4.4-8.7-2.9-18.7-7-27.7c8.5-2.3,11.2-10.2,14-17.2
			c6-14.9,10.3-23.2,18.6-33.5c1.8-2.2,6.1-2.1,8.9-2.3c0.1,0.4,0.2,0.5,0.1,0.6c-1,2.8-2,5.5-3.1,8.3
			c-15.8,41-27.9,82.9-36.9,125.5c4.6,3.3,9.5,6.3,14.7,8.4c9.4-46.4,22.4-91.9,39.9-136.1c0.4-0.9,0.3-2.2,1.8-2.6
			c2.1,0.1,2.8,1.6,2.8,3.1c0.1,6.9,1.7,14.5,4.2,20.8c3.7,9.3,0,19.5-1.1,29c-0.1,1.1,0.5,2.5-0.7,3.1c-4.9,2.6-7.8,8.2-13.7,9.5
			c-2.5,0.6-4.6,2.3-5.8,4.6c-1,2.1-0.4,3.9,2.2,3.5c3.6-0.5,7.3-2.2,8.2-5.8c1.2-5.3,5.6-6.8,9.5-10.3c-0.2,6,0.5,11.1-5.6,14
			c-2.7,1.3-4,4.5-2.2,7.2c2.1,3,4.7,1.2,6.8-0.5c0.3-0.2,0.7-0.3,1.5-0.7c1,9.8,4.7,18.5,9.7,26.5c-0.7,0.6-1,1-1.4,1.1
			c-9.9,2.3-17.5,8-24,15.5c-1,1.1-2.2,1.4-3.6,1.8c-4.3,0.9-6.5,4.2-7.9,8.1c-0.4,1.2-0.5,2.6,0.7,3.5c1.2,1,2.4,0.4,3.6-0.2
			c3.4-1.7,5.6-4.4,6.3-8c0.4-1.8,1.1-3.1,2.3-4.3c3.3-3.7,7-7,11.2-9.5c2.8-1.7,5.6-3.6,9.8-3.6c-7.7,5.9-12.1,13.3-15.6,21.3
			c-0.4,1-1.1,1.7-2.2,2.3c-4.1,2.3-5.4,6.2-5.4,10.7c0,1.1,0.1,2.4,1.4,2.8c1.3,0.5,2.5,0,3.4-1c2.4-2.7,3.9-5.8,3.7-9.6
			c0-1.4-0.4-2.8,0.3-4.1c2.9-6.5,6.2-12.7,11.6-17.4c8.3-7.2,8.2-7.3,14.5,0.2c0.3,0.3,0.8,0.4,1,0.7c3.9,5.3,8.9,10.1,8.4,17.6
			c-0.2,2.8,1.3,5.4,3.4,7.5c1,0.9,2.1,1.5,3.5,0.9c1.2-0.6,1.2-1.8,1.2-2.9c-0.1-3.6-1.4-6.6-4.4-8.6c-1-0.7-2.1-1.2-2.7-2.5
			c-1.9-4.4-4.3-8.5-7-12c2.5-4,5.3-2.9,8.2-0.9c1.3,0.9,2.6,1.6,2.7,3.4c0.1,1.2,1.1,2.2,2.3,2c3.6-0.4,4.8,1.7,5.9,4.6
			c1.3,3.5,3.9,5.7,7.5,6.9c1.1,0.4,2.3,0.5,3.2-0.3c1.1-1,0.9-2.4,0.3-3.6c-1.9-3.7-4.5-6.6-8.8-7c-1.8-0.2-3.3-0.3-4.3-2.2
			c2.4-3.5,4.3-7.1,2.4-11.6c-0.3-0.6,0.2-1.6,0.5-2.4c3.2-9.9,9.1-18,17-24.7c0.9-0.7,1.7-1.6,2.9-1.6c6.7,0.3,12.7,2.4,18.2,6.3
			c-3.8,6.7-5.9,13.5-7.6,20.5c-0.3,1.4-0.3,2.9-2,3.9c-3.6,2.2-4.7,5.9-4.8,9.8c-0.1,2.9-1.2,7.1,3,7.6c3.8,0.5,4.6-3.4,5.6-6.3
			c1.4-3.9-0.7-7.8-0.4-11.4c0.7-8,3.5-15.7,8-22.5c3,1,3.3,3.2,3.3,5.5c-0.1,6.6-0.5,13.2,0.4,19.8c0.2,1.4-0.7,2-1.2,2.9
			c-2.6,4.1-2.1,11.4,0.9,15.2c2.3,2.8,4.7,2.5,5.9-0.9c1.6-4.5,1.3-9.1-1.3-13c-4.5-6.6-2.4-13.5-2.8-20.6c3.5,0.2,7.5,3,8.7-1.1
			c1.4-4.9-3.7-5.7-6.9-7.6c0.6-1.9,1.2-3.6,1.8-5.3c2.3-5.7,4-6,9-2c3.5,2.8,11.5,4.5,15.5-0.8c4.7,2.8,10,4.5,12.5,10.4
			c1.4,3.3,5,4.8,8.7,5.2c3.6,0.4,5.3-1.8,3.4-4.8c-1.5-2.4-1.9-4.9-2.4-7.5c-0.4-2.4-1.3-4.8-3.4-6.1c-2.6-1.7-2.9-4.2-3.4-6.9
			c2.1-0.8,3.5-0.1,5,1.2c3.9,3.4,8.5,4.1,13.4,3c1.5-0.3,3.1-1,3.4-2.7c0.4-1.8-0.9-2.8-2.2-3.8c-4-3-10.8-3.3-15.1-0.8
			c-2.7,1.6-5.3,0.9-5.9-1.9c-2-9.4-1.5-18.7,2-29.2c3,12.6,10.2,20.5,20,26.2c1.1,0.6,1.2,1.8,1.5,2.8c1.3,4.1,5.3,6.7,9.3,6.4
			c3.2-0.2,4.5-2.3,3.1-5.2c-1.7-3.7-5-5.5-8.9-5.2c-2.5,0.2-4.3-0.6-6.2-1.8c-3.3-2.2-6.3-4.8-8.9-7.7c-4.6-5.3-7.4-11.4-8.4-18.6
			c1.4-0.1,2.4-0.2,3.4-0.2c1,0,2,0.1,2.9,0.2c10.5,1.1,19.2,5.9,26.6,13.3c1.5,1.5,2.6,2.9,3.1,5.2c0.8,4.1,3.5,7,7.6,8.3
			c3.3,1.1,5.3-0.8,4.5-4.1c-0.9-4.1-4.9-7.8-9.1-8.3c-1.7-0.2-2.9-0.7-4-1.9c-8.4-8.6-18.1-14.5-30.6-14.8c0.2-0.6,0.3-1,0.4-1
			c9.9-4.3,19.7-3.4,29.5,0.4c0.9,0.4,1.2,1,1.6,1.8c1.6,3.3,4.7,4.8,8,4.6c2.5-0.1,6.1,2.4,7.6-1c1.5-3.4-0.9-6.4-3-9.1
			c-1.9-2.4-5.3-2.3-7.1-4.1c-5.5-5.5-9.7-12.1-12.3-19.5c5.1-3.5,9.9-5.7,15.7-2.2c2.4,1.5,5.6,1.8,8.4,2.4c2,0.4,3.5,0.9,4.9,2.7
			c2.3,3.1,7.6,4.1,11.2,2.5c3.3-1.5,3.7-4.4,0.8-6.5c-3-2.1-6.6-3.1-10-1.4c-5.4,2.6-9.7-0.3-15.5-1.7c4-1.2,6.8-2.2,9-4.4
			c1.2-1.3,2.3-2.7,1.4-4.5c-0.8-1.6-2.6-1.6-4.1-1.4c-4.9,0.5-8.7,2.9-11,7.3c-5.6-2.2-11.2-7.7-13.3-13.1
			c8.2-3.6,16.8-4.7,25.4-2.7c6.5,1.6,13.2,2.7,17.9,8.8c3.7,4.8,10,4.6,13.1,1v-1.7C418.9,226.2,414.4,222.8,407.9,225.3z
			 M49.8,186.1c-0.2-2.5-2.5-4-3.8-6c4.9,2.3,9.1,5.5,12.9,9.3c-0.5,1.8-2.4,2.7-2.4,5.1C53.3,192,50.1,190.4,49.8,186.1z
			 M55.8,207.6c-4.2-3-9.1-5-13.9-6.8c-1.7-0.6-3.4-1.5-2.9-3.5c0.5-2,2.5-1.3,3.9-1.4c0.4,0,0.8,0,1.3,0
			c12.4,0.5,11.8,0.1,19.7,10.9C61.4,209.7,59,209.9,55.8,207.6z M61.5,199.3c2.9,0.5,4.8,2.1,6.8,3.7
			C65.9,205.9,65.7,205.8,61.5,199.3z M160.8,73.5c8.9,0.9,15.1,6.2,21.9,10.4c6.7,4,14,6.3,21.8,7.5c0.9,2.8,0.6,5.6,0.6,8.6
			c-6,0.2-10.4,2-11.4,8.9c-0.3,2.2-3.3,4-5.3,5.8c-3.7,3.1-7.5,6.1-12.4,7.5c5-4.5,8.5-9.9,10.6-16.3c0.5-1.6,2.2-1.6,3.3-2.4
			c2.4-2,3.7-4.3,2.5-7.4c-0.7-2-2.6-2.1-4.3-1.5c-3.2,1-5.6,3.7-4.6,6.6c3,9.6-4.5,13.6-9.1,20.3c-6.1-15.1-12.1-29.2-19.1-42.9
			C157.4,76.6,159.4,74.8,160.8,73.5z M133,68c3.9,3.2,7.4,6.3,11.4,8.9c-4.6-0.3-8.7-1.6-12.7-3.8C132.1,71.4,132.5,69.9,133,68z
			 M144.6,79.5c6.7-0.1,9.4,3.6,11.4,9.1c1.4,3.9,3.5,7.6,5.2,11.5c0.9,2.1,2.3,4,1.1,6.7c-0.8,1.7,1.1,2.8,2.4,4
			c3.2,3,4.9,6.8,4.2,11.2c-0.4,2.9-1.8,4.3-5.3,3.1c-6.6-2.3-12.5-5.6-17.3-10.8c-1.9-2-3.6-3.9-3.4-7.2c0.2-3-3.8-6.3-6.8-6.5
			c-2.6-0.2-4.2,1.9-3.3,4.5c0.9,2.7,2.7,4.9,5.5,5.3c2.6,0.4,3.9,1.8,5.4,3.5c4.1,4.9,9.1,8.6,15.3,11.3
			c-7.1,0.9-18.6-3.5-23.4-8.7c-3.3-3.6-10.4-3.9-12.7-0.6c-1.3-0.9-2.4-1.9-3.3-3.6c8.1-10.9,9.6-23.8,9.7-37.5
			C134.5,76.8,139.3,79.6,144.6,79.5z M117.2,76.1c-0.9-2.9-1.7-5.6,0.8-8.1c7.9,2.8,9.8,8.5,8.8,16.3c-1,7.7-2.5,15.1-6.3,22
			c-1.3-1.1-0.4-2.3-0.3-3.4c0.1-1.1,0.4-2.2,0.5-3.3C121.2,91.5,119.7,83.7,117.2,76.1z M110.1,115.2c-9.8,2.3-18.2,1.3-26.5-0.6
			c-1.1-0.3-1.5-1-1.7-2.1c-0.7-3.4-1.5-6.8-2.6-11.2C88.7,108.3,98,113.3,110.1,115.2z M62.7,94.3c3.7,2.1,6.8,5.2,11.5,4.3
			c1-0.2,1.7,0.3,2,1.2c1.5,4.3,3.1,8.6,3.1,13.4C71.1,109,67.7,100.9,62.7,94.3z M79.2,128.5c-1-3.9-1.7-6.7-2.5-9.6
			c-0.9-3.5-0.8-3.6,3.4-3C80.1,119.8,80.8,123.7,79.2,128.5z M100,187.8c-4.2,4.9-9.2,8.7-14.7,11.8c-3.8,2.1-8.3,1.2-12.3,0.6
			c-2-0.3-1.7-3.4-2.1-6C81.4,194.4,91,192.6,100,187.8z M94.6,205.1c-0.1,2.6,0.3,5.1,2.5,7c1.6,1.3,3.6,2.3,5.4,1.4
			c3.1-1.6,4.9,0.1,7.8,2.1c-6,1.1-11.3,2-16.5,3.1c-5.2,1-10.4,2.1-15.6,3.3c-3,0.7-5,0.6-5.7-3.1c-0.4-2.2-1.5-4.2-2.3-6.4
			C78.8,202.6,79.4,204,94.6,205.1z M149.8,220.7c-8.2,1.8-16.2,4.5-24.2,8.1c-1.4-3.8-2.6-7.2-3.9-11c12.3-1.5,24.3-4.2,37.3-5.2
			C156.5,217.2,154.2,219.7,149.8,220.7z M150.7,225.2c-8.7,6.5-17.4,13-26.4,19.8c0.6-3.9,1.1-7.2,1.5-10.5
			c0.2-1.4,0.9-2.3,2.1-2.8C135.2,228.7,142.6,226.1,150.7,225.2z M147.5,210c-7.9,1.2-15.8,2.2-23.7,3.7c-3.3,0.6-5.3-0.1-6.6-3.2
			c-0.6-1.4-2.1-2.3-2.3-4.3c11,1,21.8,2,32.6,3C147.6,209.5,147.5,209.8,147.5,210z M117.5,214.1c-5.1,1.6-11.1-1.9-14.4-8.3
			C111.5,205,113,205.9,117.5,214.1z M48.2,254.1c-1.3-2.1-1.5-3.5,0.8-4.7c7.9-4.3,15.2-9.5,20.9-16.8c-0.2,9.5-4.1,17.6-9,25.3
			c-0.4,0.6-0.9,1.3-1.6,1.1C55.5,257.5,50.8,258.5,48.2,254.1z M59.3,270.1c-0.1-1.8-0.2-3.2-0.2-4.6c0.1-3,1.2-4.4,4.5-3.1
			c6.8,2.7,13.1,6.1,19.2,12.3C74.5,271.6,67.1,269.8,59.3,270.1z M79.8,268.7c-2.9-1.7-5.5-3.9-8.6-5.3c-2.9-1.3-5.9-2.5-9-3.9
			c4.6-7.2,8.5-14.4,10-22.7c0.1-0.6,0.3-1.1,0.3-1.6c1.1-8.3,1.1-8.5,9-10.1c9.5-2,19-3.5,28.5-5.5c4.2-0.9,7,0.2,9,3.8
			c0.8,1.4,2.2,2.6,2.5,5c-4.8-2.5-9,1.8-13.9,0c-2.1-0.8-4.2,2-4.5,4.6c-0.1,1,0.5,2,1.5,2.3c1.9,0.5,3.2-0.7,4.3-2
			c2.9-3.5,7.1-4.8,11.2-3.5c3.2,1,4.7,2.5,2.9,6.1c-2.9,5.9-6.2,11.3-11.4,15.4c-3.9,3-6.1,2.9-9.3-1c-1.8-2.2-3.8-4.1-6.4-5.4
			c-1.7-0.9-3.4-1.4-5.8-0.2c1.3,5.6,5.7,7.8,10.3,10.3c-1.7,1.8-2.8,3.9-5.6,4.5c-2.3,0.4-2.4,2.6-1.7,4.4c0.5,1.3,1.4,2.4,2.1,3.5
			c-2.5,2.3-4.6,5.5-7.5,6.6C83.9,275.3,82.6,270.4,79.8,268.7z M127.1,270.4c-3.8-1.8-6.8-3.2-9.7-4.5c-2.4-1.1-1.6-2.5-0.3-4.4
			C120.6,264.1,123.9,266.5,127.1,270.4z M125.6,266.7c4.4,0.2,8.4,1.2,13.3-0.1c-2,3.1-3.4,5.5-4.7,7.5
			C131.2,271.6,128.4,269.1,125.6,266.7z M116.1,250.5c2.4-3.1,4.6-6.3,6.9-10.1C123.7,246.4,119.9,248.5,116.1,250.5z M115.8,261
			c-2.8,1-4.7,4.6-8.4,2.3C112,258.3,112.3,258.2,115.8,261z M91.4,314.7c-10.9,0.9-10.9,0.9-15.2-2.7c5.3-8.1,10-16.7,11.5-26.6
			C92.1,294.7,92.8,304.4,91.4,314.7z M93.3,316.9c5,0.5,9.4,1.6,13.6,4.1C96.9,323.1,93.9,322.2,93.3,316.9z M135.7,288.3
			c-8.2,10.6-16.5,21.3-24.4,32.9c-5.6-3.8-11.5-5.2-17.8-6.4c0.8-12.4,0.8-24.4-5.5-35.4c6.1-6.5,12.7-11.5,21.6-13.9
			c-0.5,2.2-0.8,3.7-1,5.2c-0.2,1.4-0.5,3,1.1,3.7c1.8,0.7,2.9-0.7,3.7-2c1-1.5,1.7-3.2,2.6-4.9c5.4,1.8,10,4.4,14.5,8.3
			c-3.9,0.3-6.4,2.1-8.3,5c-0.4,0.6-0.6,1.7-1.8,1.3c-2.2-0.7-3.3,0.5-3.7,2.4c-0.5,2.1-0.2,4.2,1.3,5.9c0.7,0.8,1.7,1.2,2.7,0.7
			c1.5-0.7,1.8-2.1,1.6-3.6c-0.6-3.7,1.1-6.3,3.9-8.2c2.7-1.9,6.2-2.2,8.1,0C136.3,281.6,138,285.3,135.7,288.3z M142.3,290.7
			c-1.7-2.1-1.5-3.8,0.1-5.7c4.2-5,8.1-10.2,12.5-15.8C152.9,279.9,148.4,287.4,142.3,290.7z M139.3,283.3c-2.4-2.7-2.8-5.3-0.4-8.7
			c5.7-8.2,12.3-15.7,19.6-23.3C154.2,263.8,148.6,274.6,139.3,283.3z M145.9,256.9c-4.9,4.5-9.9,8.6-17.1,8.2
			c-4.3-0.2-9.2-1.5-10.1-5.3c-0.7-3.1,1.9-7.3,5.3-9.8c9.6-7.1,19.2-14.2,28.6-21.5c2.3-1.7,9.2-1.9,12.3-2.3
			C162.7,238.4,154.7,248.8,145.9,256.9z M156.6,206.1c-14.4-1.2-28.8-2.5-43.2-3.7c-2-0.2-3.3-0.8-3.7-3.1
			c-0.3-2.3-1.8-4.1-3.5-5.6c-1.1-1-2.4-1.7-3.8-0.9c-1.4,0.9-1.2,2.4-0.6,3.8c0.6,1.5,1.3,3,2.1,5c-5.4-0.3-10.4-0.5-16.8-0.8
			c7.8-5.5,14.2-10.7,19.5-17.1c1-1.1,2.1-1.3,3.4-1c16.1,3.5,31.2,9.9,46.5,15.7c2.9,1.1,2.2,4.7,4.5,6.2
			C160,206.5,158.2,206.2,156.6,206.1z M108.8,154c4.2,1.1,5.9,3,4.4,7.3c-1.2,3.5-1.5,7.2-3.3,10.5C110.7,165.9,110,160,108.8,154z
			 M156.7,193.3c-15.3-5.8-30.4-12.2-46.7-15.3c2.4-6.7,4.5-13.1,5.5-20.5c6.8,4.1,13.1,7.9,19.3,11.7c6.5,3.9,13,7.8,19.4,11.8
			c4.5,2.8,6,8.3,10.7,11C162.1,194.4,159.6,194.4,156.7,193.3z M149.5,173.8c-9.7-6.8-20.2-12.6-30.5-18.7c-2.2-1.3-3.2-2.8-3-5.4
			c0.4-5.1-0.8-10.2,1.9-15.2c1.2-2.3,1-5.5,0.1-8.3c-0.3-1-0.7-2.2-2.1-2.4c-1.3-0.3-2.1,0.6-2.8,1.5c-3,3.6-2.8,10.8-0.1,14.5
			c2.6,3.5,1.4,7.6,1.5,12.5c-3-1.7-5.1-2.8-7.1-4.1c-2.2-1.4-3.1-3.1-2.3-6c1.5-5.1-0.8-10-4.3-10.4c-3.2-0.4-5.1,2.7-5.6,9.6
			c-4.6-2.4-9-4.6-13.4-6.9c-0.9-0.5-0.9-1.4-0.7-2.2c1.3-5,1.6-10.2,1.4-15.8c8,1.7,15.7,2.9,23.6,1.8c0.8-0.1,1.8,0,2.5-0.3
			c6.4-3.2,10.5-0.2,15,4.4c16.2,16.6,30.9,34.5,46.4,51.8c1.9,2.1,0.9,4.8,2.3,7.1C164.5,179.1,156.5,178.7,149.5,173.8z
			 M181.7,175.3c-5.9-1.3-9.7-4.6-13.3-8.8c-13.5-15.7-26.8-31.5-41.4-46.1c-0.3-0.3-0.4-0.7-0.5-0.9c10.6-0.2,19.4,6.7,29.8,7.5
			c1.1,0.1,2.3,0.6,3.3,0.4c6-1.1,8.6,2.2,10.8,7.2c4.6,10.6,8.1,21.5,12.2,32.3C183.8,170.2,180.5,172.3,181.7,175.3z M205.2,126.3
			c-0.2,9.1-0.6,18.2-0.9,27.3c0,0.8,0.1,1.9-0.4,2.4c-3.2,3.7-3.9,8.4-5.1,13.3c-5.4-6.3-11.2-11.8-13.6-20
			c-2.5-8.4-6.3-16.4-9.6-24.8c11.6-4.7,18.6-15.3,29.7-20.1C205.2,111.4,205.4,118.8,205.2,126.3z M316.7,223.2
			c-9.1,2.1-16.5,5.1-23.2,9.7c-1.5,1-2.7,1-4.2,0.2c-11.9-6.2-22.3-14.6-33.3-22.1c-1.9-1.3-1.5-3.5-2.7-6.1
			C275,209.6,294.9,217.6,316.7,223.2z M295.4,265.9c-2.4,0.5-4.8-1.6-5.7-3.5c-1.5-3.4-1.9-7.2-1.4-11.7c5.8,4.1,11,7.8,16.6,11.8
			C301.6,263.7,298.6,265.3,295.4,265.9z M312.6,266.6c2.8,2.1,6.3,3.3,9.4,5.4c-8-1.9-15.5-5.9-24.1-4.7
			C302.7,264.5,307.4,262.8,312.6,266.6z M276.1,277.8c1.4,0.4,2.5-0.4,3.2-1.5c2.1-3,2.7-6.4,2.1-10.1c5.8,3.1,6.7,5.7,4.5,11.5
			c-0.8,2.1-1.5,4.2-2,6.4c-0.5,2.2-0.7,4.4-1.2,7.6c-5.9-8.2-11.4-15.8-16.9-23.3c-4.3-5.9-8.5-11.9-12.9-17.7
			c-2-2.6-2.9-5.3-3-9.2c9.5,7.5,18.5,14.6,27.6,21.6c1.7,1.3,1,2.3,0.1,3.5c-2,2.3-3.1,5-3,8.1C274.5,276,274.6,277.4,276.1,277.8z
			 M281.9,255.4c0.7-2.4,1.4-4.8,2.8-7c1.1,0.9,3.2,13.9,2.8,17.1C280.7,263.1,280.1,262,281.9,255.4z M288.7,276.9
			c-2.2,8.6,3.3,16.3,3.1,25.4C283.1,294.6,282.3,286.8,288.7,276.9z M255.1,214.6c10.9,7.9,21.5,16.1,33.8,22.1
			c-0.6,2.4-2.1,4-3.5,6.3c-12.5-9.9-24.2-20.5-38-29.5C250.8,212.3,252.9,213.1,255.1,214.6z M247.2,218
			c12.7,8.8,24.4,18.9,36.4,28.7c-2,4.5-3.4,8.8-4.5,14c-9.5-7.6-25-16.6-31.7-25.5c-6.1-8.1-9.7-11.1-14.1-20.3
			C238.7,212.5,242.9,215,247.2,218z M231.4,280.4c2.1,8.4,6.7,14.5,15.5,16.5c0.9,0.2,1.9,0.2,4,0.3c-16.3-6.6-13.5-19.8-13.6-32.5
			c3.6,2,6.5,3.8,7.9,7.8c3.4,9.8,7.2,19.4,11.2,30c-8-4.1-15.2-7.8-23.2-8c-6.9-0.2-9.1-4-11.2-9.4c-2.5-6.3-5-13.8-5.1-20.7
			c-0.2-8.9-1.7-13.9,2.6-22.1c4.6,3.4,9.4,5.9,10.7,10.6C232.4,261.3,229.3,271.9,231.4,280.4z M222.1,294.2
			c-2.5,0.9-4.8,1.8-7.6,2.8c0.4-4.7,1.6-9,2.8-14C219.1,287.1,220.6,290.5,222.1,294.2z M250.5,129.6c0.9,1.3-0.4,2.7-1,3.9
			c-6,13.8-13.9,26.5-21.2,39.7c-0.8,1.5-1.9,2.3-4.1,2.2c4.3-20.4,12.1-39.7,17.8-60.9C244.4,120.5,247.2,125.2,250.5,129.6z
			 M236.3,71.4c1.9-2.4,5.3-1.6,7.5-4c0.9,3.2,0.4,6.2,0.5,9c0,1-0.3,1.9-1.3,2.5c-9.2,5.9-19.1,10.2-30.3,11
			C222.3,85.9,230,79.5,236.3,71.4z M208.3,148.9c0.4-16,1.6-32,1-48.1c-0.3-7.8-0.3-7.9,7.2-9.1c9.7-1.6,18.4-5.6,27.3-11.1
			c0.6,5.1-0.9,9.2-1,13.4c-1.7,0.4-1.7-0.8-2.2-1.3c-0.8-0.8-1.5-1.7-2.9-1.2c-1.2,0.5-1.4,1.7-1.5,2.8c-0.3,2.6-0.1,5.4,1.7,7.2
			c2.7,2.7,2.2,5.4,1.4,8.5c-3.8,15-9,29.5-13.4,44.3c-2.5,8.5-4.9,17-6.5,25.7c-0.7,4-3.5,7.2-5.4,10.7c-1.5-0.7-1-1.7-0.9-2.7
			c1-10.7,1.3-21.3-4.3-31.1C207.3,154.4,208.2,151.5,208.3,148.9z M212.4,316.1c0.9,8.4,1.9,16.8,2.8,25.3
			C211.6,333.2,210.5,324.7,212.4,316.1z M239.3,357.8c-1.3-0.7-3-1.6-4.6-2.6c3.4-14.8,14.5-22.8,26.5-29.9
			C250.6,334,249.6,348.7,239.3,357.8z M257.9,324.7c-8,4.7-14.5,11.1-20,18.4c-3,3.9-7.9,5.1-11.2,8.7c-1.8,1.9-6.7-1.2-7.2-4.2
			c-2.5-13.8-3.5-27.9-4.9-41.8c-0.5-5.1,4.1-5.6,7-7.8c-0.8,3.2-0.3,6,0.7,8.8c0.5,1.3,1.3,2.4,0.2,3.9c-1.1,1.6-0.1,3,1.1,4.1
			c1.5,1.2,3.3,2.9,5.1,0.8c1.8-2,0-3.7-1.5-4.9c-4.3-3.7-5.6-8.4-3.2-12.9c0.8-1.6,1.7-2.6,3.9-1.8c8.2,2.9,14.9,7.8,19.9,14.9
			c0.6,0.9,0.9,1.8,0.7,3.1c-0.5,4.1,1.8,6.5,5.3,8c1.4,0.6,2.8,0.6,3.9-0.4c1.2-1.1,1-2.6,0.6-3.9c-0.8-2.6-2.5-4.6-5-5.2
			c-2.5-0.6-3.9-2-5.2-3.9c-3.8-5.6-9.2-9.3-16-13.1c8.4,1.4,15.5,3.5,21.5,7.6c3.6,2.4,5.8,6.4,7.7,10.5
			C264.6,320.7,264.7,320.7,257.9,324.7z M288.2,326.9c-4.3-2.3-8.5-4.6-13.1-5.8c5.9-1.9,11.8-2.2,18.2-1.6
			C292.3,322.5,289.6,324.1,288.2,326.9z M293.3,330.6c-1.5-0.4-2.4-1.1-3-2.5c1.6-2.6,3.5-5.1,6.6-7.7
			C295.5,324.2,294.5,327.3,293.3,330.6z M296.7,316.8c-0.5,0.9-1.3,1.3-2.5,1.2c-7.9-1-15.7-0.2-23.3,1.9c-1.6,0.4-2.4-0.4-3-1.6
			c-1.2-2.5-2.5-5-3.8-7.7c1.6-0.8,3.1-0.2,4.2-1.4c0.5-3-2-4.2-4-4.8c-2.9-0.9-4.2-2.8-5.1-5.4c-3.6-9.9-7.4-19.7-11.1-29.5
			c-0.2-0.7-0.3-1.5-0.6-2c-7.3-10.7-8.9-20-6.9-25c4.3,1.1,9.4,9,11.9,14.3c6.9,14.4,18.8,25.9,28.3,38.8c1.3,1.8,2,3.2,0.4,5.1
			c-0.1,0.1-0.1,0.3-0.1,0.4c-1.4,3.6-0.6,8.1,1.5,8.9c1.7,0.6,2.6-0.4,4.9-5.5c3,3.5,5.9,6.9,8.7,10.3
			C296.6,315.2,297.3,315.9,296.7,316.8z M337,319.9c-0.7,2.1-1,4.3-0.9,6.4c-2.1,1.2-3.4,0.2-4.8-0.8c-7.3-4.8-15.1-8.6-25-9.9
			c9.5-4.4,18.5-4.5,27.6-3.9C335.7,311.8,337.8,317.4,337,319.9z M334.9,309.9c-11.6-1.4-22.6-0.4-33.2,5.1
			c-1.4-1.5-2.8-3.1-4.1-4.6c3.1-5.5,2.4-8.6-2.6-12.2c-2.8-2-2.8-5.3-3.7-8.2c-1.4-4.8-1.3-9.6,0.1-14.7c2.2,5.1,8.6,6.2,10.5,11.4
			c0.2,0.6,1,1,1.6,1.3c1.5,1,3.2,1.1,4.8,0.4c0.7-0.3,0.9-1.1,0.7-1.8c-0.4-1.9-1.9-2.9-3.6-3.1c-3.4-0.2-6.1-1.8-8.5-4.1
			c-2.8-2.7-5-5.6-1.7-9.8c8.2-1.4,16.2,0.4,24,4c1,0.5,1.5,1.2,2,2.1c1.2,2.3,3.3,3.4,5.6,4.1c4.5,1.4,6.2,0.2,6.1-4.6
			c1.2,0.4,2.4,0.7,3.8,1.1C333.2,287.4,332.4,298.3,334.9,309.9z M344.3,267.8c-3.1,5-5.4,5.5-11,3.6c-5.9-2-11.8-4.1-17.4-7.5
			c1.8-1,2.9,0,4.1,0.5c3.1,1.3,6.3,1.4,9.3-0.3c2.4-1.4,2.2-3.2-0.3-4.3c-2.8-1.2-5.9-0.9-8.5,0.5c-4.2,2.3-8.2,2.1-12.2-0.6
			c-5.2-3.6-10.3-7.4-15.6-10.7c-3.8-2.4-4.2-5-1.7-8.9c1.6,3.5,3.9,5.9,7.3,7.4c0.8,0.4,1.1,1.1,1.3,2c0.8,3.2,3.3,3,5.7,2.5
			c1.2-0.2,2.5-1.1,2.2-2.7c-0.4-2.2-2.4-2.6-4.2-2.7c-5.3-0.1-9.3-3.1-10.4-7.7c-0.5-2.3-0.1-3.6,2.4-4.4c8-2.6,16-2.8,24-0.5
			c1.2,0.3,2.1,1,2.9,2.2c2.2,3.5,5.5,3.9,9.2,2.8c1.4-0.4,2.5-1.3,2.7-2.9c0.2-1.6-0.8-2.7-2.1-3.4c-2.1-1.2-4.4-2.2-6.8-1
			c-2.3,1.2-4.5,0.9-6.9,0.2c-5.9-1.8-12-1.9-18.2-1.2c7.8-3.3,14.9-7.5,24.4-5.8c12.5,2.2,25.3,4.2,38.5,1.7
			c1.1,6.1,1.2,12,3.6,17.6C356.8,250.2,350.1,258.5,344.3,267.8z M379.2,265.6c0.9,1.1,1.4,2.7,0.3,3.3c-1.7,0.9-3.2,2.5-5.7,1.5
			c-4.6-1.7-9.3-3-14.3-3c-4.5,0-8.9,0.3-14,2.3c5.7-9.9,12.3-17.7,21.5-23.4C370.2,253.5,374.4,259.8,379.2,265.6z M376.4,239.5
			c-2.7,1.4-5.2,2.6-8,4c-1.6-4.6-2.7-8.8-2.7-14.2C369.2,233.3,372.4,236.6,376.4,239.5z"/>
	</g>
	<g>
		<path d="M394.8,56.9c2-4.5,5.2-7.8,9.2-10.4c1-0.6,1.4-1.6,2-2.5c1.3-2,3.2-3.1,5.7-2.1c0.1,2.5-1.5,3.8-3.5,4.2
			c-7.5,1.7-10.6,7.2-12.9,13.7c5.8,0.8,12.4-2.8,14.4-7.8c0.1-0.3,0.2-0.7,0.4-0.9c0.9-1.2,1.9-2.2,3.5-2.1c0.7,0.1,1,0.6,1,1.1
			c0.1,1.6-0.6,3.2-2,3.5c-3.1,0.7-4.9,3.2-7.3,4.8c-2.4,1.6-5,2.3-7.8,2.7c3.9,3.3,11.9,4.2,16.5,2c1.8-0.9,3.6-1.1,5.4,0
			c0.6,0.4,0.8,1.2,0.2,1.7c-1.6,1.5-3.5,1.7-5.5,0.7c-1-0.5-2.1-0.7-3.2-0.5c-5.5,0.7-10.6-0.5-15.6-3.4
			c-5.1,9.3-13,16.1-21.2,22.5c-4.5,3.6-9.1,7.1-13.3,11c-1.3,1.2-2.2,2.5-2.8,4.3c-1.8,5.8-5.5,10.3-10.5,13.6
			c-0.8,0.6-1.9,1.4-3,0.4c-1-0.9-0.6-2.1-0.1-3.1c2.4-5.8,6-10.6,11.6-13.6c3.2-1.7,5.3-4.7,8-6.9c8.2-6.9,17.3-12.8,24.2-21.2
			c1.6-2,2.9-4.2,4.5-6.2c1.6-2,1.2-3.7-0.4-5.3c-4.7-4.5-7.4-9.8-7.9-16.3c-0.1-1.8-2.2-2.8-2.1-4.8c0-1.3-0.4-3.1,1.2-3.4
			c1.9-0.3,2.2,1.6,2.3,3c0.2,2.9-1,5.8,0,8.8c1.4,4.4,3.3,8.4,7.5,11.9c-0.7-6,3.8-9.9,4.2-15.1c0.1-1.3,1.3-2.3,2.8-2.5
			c0.7-0.1,1.3,0.1,1.5,0.9c0.3,1.7-0.3,3.2-1.7,4C395.2,47.1,394.6,51.8,394.8,56.9z"/>
	</g>
</g>
<path class="st1" d="M650.8,301.4H15c-6.2,0-11.3-5.1-11.3-11.3v-22.4c0-6.2,5.1-11.3,11.3-11.3h635.8c6.2,0,11.3,5.1,11.3,11.3
	v22.4C662.1,296.3,657,301.4,650.8,301.4z"/>
<g>
	<path class="st2" d="M87.5,205.1c0.1,0.2,0.3,0.5,0.7,0.9c0.4,0.4,0.9,1.2,1.7,2.4c0.7,1.2,1.4,2.5,2.1,3.9
		c0.6,1.4,1.2,3.1,1.7,5.2c0.5,2.1,0.7,4.2,0.7,6.3c0,4.3-0.6,8.1-1.8,11.5c-1.2,3.4-2.8,6.2-4.8,8.3c-2,2.1-4.3,3.8-6.9,4.9
		c-2.6,1.1-5.3,1.7-8.3,1.7h-42c-0.5,0-0.9-0.2-1.2-0.5c-0.3-0.3-0.5-0.7-0.5-1.2V169c0-0.5,0.2-0.9,0.5-1.2
		c0.3-0.3,0.7-0.5,1.2-0.5h37.3c3,0,5.9,0.6,8.5,1.7c2.7,1.1,5,2.7,7.1,4.8c2,2.1,3.7,4.8,4.9,8.1c1.2,3.3,1.8,7,1.8,11.1
		c0,2.7-0.2,5-0.7,7.1c-0.4,2-0.9,3.4-1.3,4.2L87.5,205.1z M52.3,187.5v10.6c0,0.6,0.3,0.8,0.8,0.8h7.5c1.7,0,3.1-0.6,4.3-1.8
		c1.2-1.2,1.8-2.7,1.8-4.4c0-1.7-0.6-3.1-1.8-4.3c-1.2-1.2-2.7-1.8-4.3-1.8h-7.5C52.5,186.6,52.3,186.9,52.3,187.5z M64.3,231
		c1.7,0,3.2-0.6,4.4-1.8c1.2-1.2,1.8-2.6,1.8-4.3c0-1.7-0.6-3.1-1.8-4.4c-1.2-1.2-2.6-1.8-4.4-1.8H53.1c-0.6,0-0.8,0.3-0.8,0.8v10.6
		c0,0.6,0.3,0.8,0.8,0.8H64.3z"/>
	<path class="st2" d="M135.1,250.3h-20c-0.5,0-0.9-0.2-1.2-0.5c-0.3-0.3-0.5-0.7-0.5-1.2V169c0-0.5,0.2-0.9,0.5-1.2
		c0.3-0.3,0.7-0.5,1.2-0.5h20c0.4,0,0.8,0.2,1.2,0.5c0.3,0.3,0.5,0.7,0.5,1.2v79.7c0,0.5-0.2,0.9-0.5,1.2
		C135.9,250.1,135.5,250.3,135.1,250.3z"/>
	<path class="st2" d="M182.6,169.5c5.4-2.3,11.1-3.4,17.1-3.4c5.9,0,11.6,1.1,17.1,3.4c5.4,2.3,10.1,5.4,14,9.3
		c3.9,3.9,7.1,8.5,9.4,13.8c2.3,5.3,3.5,10.9,3.5,16.8c0,5.9-1.2,11.5-3.5,16.8s-5.5,10-9.4,13.9c-3.9,3.9-8.6,6.9-14,9.2
		c-5.4,2.3-11.1,3.4-17.1,3.4c-5.9,0-11.6-1.1-17.1-3.4c-5.4-2.3-10.1-5.3-14-9.2c-3.9-3.9-7.1-8.5-9.4-13.9
		c-2.3-5.4-3.5-11-3.5-16.8c0-5.9,1.2-11.5,3.5-16.8c2.3-5.3,5.4-9.9,9.4-13.8C172.5,174.9,177.2,171.8,182.6,169.5z M185.5,223.4
		c3.9,3.9,8.7,5.8,14.2,5.8c5.6,0,10.3-1.9,14.2-5.8c3.9-3.9,5.9-8.5,5.9-14c0-5.5-2-10.2-5.9-14s-8.7-5.8-14.2-5.8
		c-5.6,0-10.3,1.9-14.2,5.8c-3.9,3.9-5.9,8.5-5.9,14C179.6,214.9,181.5,219.5,185.5,223.4z"/>
	<path class="st2" d="M312.3,248.6c0,0.5-0.2,0.9-0.5,1.2c-0.3,0.3-0.7,0.5-1.1,0.5h-46.3c-0.5,0-0.9-0.2-1.2-0.5
		c-0.3-0.3-0.5-0.7-0.5-1.2V169c0-0.5,0.2-0.9,0.5-1.2c0.3-0.3,0.7-0.5,1.2-0.5h20c0.4,0,0.8,0.2,1.2,0.5c0.3,0.3,0.5,0.7,0.5,1.2
		v62h24.6c0.5,0,0.9,0.2,1.2,0.5c0.3,0.3,0.5,0.7,0.5,1.2V248.6z"/>
	<path class="st2" d="M333,250.3c-0.5,0-0.9-0.2-1.2-0.5c-0.3-0.3-0.5-0.7-0.5-1.2V169c0-0.5,0.2-0.9,0.5-1.2
		c0.3-0.3,0.7-0.5,1.2-0.5h48.7c0.4,0,0.8,0.2,1.2,0.5c0.3,0.3,0.5,0.7,0.5,1.2v16.5c0,0.4-0.2,0.8-0.5,1.2s-0.7,0.5-1.2,0.5h-27.1
		v11.8H378c0.4,0,0.8,0.2,1.1,0.5c0.3,0.3,0.5,0.7,0.5,1.1v16.6c0,0.4-0.2,0.8-0.5,1.1c-0.3,0.3-0.7,0.5-1.1,0.5h-23.4v11.9h27.1
		c0.4,0,0.8,0.2,1.2,0.5c0.3,0.3,0.5,0.7,0.5,1.1v16.5c0,0.5-0.2,0.9-0.5,1.2c-0.3,0.3-0.7,0.5-1.2,0.5H333z"/>
	<path class="st2" d="M453.8,167.3c0.7,0,1.2,0.4,1.5,1.1l29.4,79.3c0.1,0.2,0.1,0.3,0.1,0.5v0.6c0,0.4-0.2,0.8-0.5,1.1
		c-0.3,0.3-0.7,0.5-1.1,0.5h-20.4c-0.8,0-1.3-0.4-1.5-1.1l-4.4-11.9h-26.6l-4.5,11.9c-0.2,0.7-0.7,1.1-1.5,1.1H404
		c-0.5,0-0.9-0.2-1.2-0.5c-0.3-0.3-0.5-0.7-0.5-1.1v-0.6c0-0.2,0-0.4,0.1-0.6l29.4-79.2c0.3-0.7,0.8-1.1,1.5-1.1H453.8z
		 M437.9,216.9h11.5l-5.8-15.4L437.9,216.9z"/>
	<path class="st2" d="M559.7,221.8c6.5,7.4,9.9,16.7,10.2,28.1c0,0.4-0.2,0.8-0.5,1.2c-0.3,0.3-0.7,0.5-1.2,0.5h-21.5
		c-0.4,0-0.8-0.2-1.1-0.5c-0.3-0.3-0.5-0.7-0.5-1.1c-0.3-6.7-2-11.8-5.1-15.4c-3.1-3.6-7.4-5.5-12.9-5.9v21.2c0,0.4-0.2,0.8-0.5,1.2
		s-0.7,0.5-1.2,0.5h-20c-0.5,0-0.9-0.2-1.2-0.5c-0.3-0.3-0.5-0.7-0.5-1.2V169c0-0.5,0.2-0.9,0.5-1.2c0.3-0.3,0.7-0.5,1.2-0.5h39.3
		c3.5,0,6.7,0.6,9.6,1.8c2.9,1.2,5.5,3,7.8,5.4c2.3,2.4,4,5.5,5.3,9.3c1.3,3.8,1.9,8.2,1.9,13.1
		C569.5,208.3,566.2,216.6,559.7,221.8z M527.2,188.9v17.7c0,0.5,0.2,0.7,0.7,0.7h9.5c2.4,0,4.5-0.9,6.1-2.6c1.6-1.7,2.4-4.1,2.4-7
		s-0.8-5.2-2.4-7c-1.6-1.7-3.7-2.6-6.1-2.6h-9.5C527.4,188.1,527.2,188.4,527.2,188.9z"/>
	<path class="st2" d="M638.8,169c0-0.5,0.2-0.9,0.5-1.2c0.3-0.3,0.7-0.5,1.1-0.5h20.1c0.4,0,0.8,0.2,1.2,0.5
		c0.3,0.3,0.5,0.7,0.5,1.2v79.7c0,0.4-0.2,0.8-0.5,1.2s-0.7,0.5-1.2,0.5h-20.8c-0.6,0-1.1-0.3-1.4-0.8l-26-46v45.2
		c0,0.5-0.2,0.9-0.5,1.2c-0.3,0.3-0.7,0.5-1.2,0.5h-20c-0.5,0-0.9-0.2-1.2-0.5c-0.3-0.3-0.5-0.7-0.5-1.2V169c0-0.5,0.2-0.9,0.5-1.2
		c0.3-0.3,0.7-0.5,1.2-0.5h20.8c0.6,0,1.1,0.2,1.3,0.7l26.1,41.9V169z"/>
</g>
<g>
	<path class="st2" d="M35.9,261.4v29h-3.7v-29H35.9z"/>
	<path class="st2" d="M58.9,275.2c0-2.2,0-3.9-0.2-5.6h3.4l0.2,3.4h0.1c1-2,3.4-3.9,6.9-3.9c2.9,0,7.4,1.7,7.4,8.9v12.4h-3.8v-12
		c0-3.4-1.2-6.1-4.8-6.1c-2.5,0-4.4,1.8-5.1,3.9c-0.2,0.5-0.3,1.1-0.3,1.8v12.5h-3.8V275.2z"/>
	<path class="st2" d="M98.4,286.5c1.1,0.7,3.1,1.5,5,1.5c2.8,0,4-1.4,4-3.1c0-1.8-1.1-2.8-3.9-3.8c-3.7-1.3-5.5-3.4-5.5-5.9
		c0-3.4,2.7-6.1,7.2-6.1c2.1,0,4,0.6,5.1,1.3l-0.9,2.8c-0.8-0.5-2.3-1.2-4.3-1.2c-2.2,0-3.5,1.3-3.5,2.8c0,1.7,1.2,2.5,4,3.5
		c3.6,1.4,5.5,3.2,5.5,6.3c0,3.7-2.8,6.2-7.8,6.2c-2.3,0-4.4-0.6-5.8-1.4L98.4,286.5z"/>
	<path class="st2" d="M132,276.3c0-2.7-0.1-4.8-0.2-6.8h3.4l0.2,3.6h0.1c1.5-2.5,4-4,7.4-4c5,0,8.8,4.3,8.8,10.6
		c0,7.5-4.6,11.2-9.5,11.2c-2.8,0-5.2-1.2-6.4-3.3h-0.1v11.3H132V276.3z M135.8,281.9c0,0.6,0.1,1.1,0.2,1.5c0.7,2.6,3,4.4,5.7,4.4
		c4,0,6.3-3.3,6.3-8c0-4.2-2.2-7.7-6.2-7.7c-2.6,0-5,1.8-5.7,4.7c-0.1,0.5-0.3,1-0.3,1.5V281.9z"/>
	<path class="st2" d="M176.8,263.7c0,1.3-0.9,2.3-2.4,2.3c-1.3,0-2.3-1-2.3-2.3c0-1.3,1-2.4,2.4-2.4
		C175.9,261.3,176.8,262.3,176.8,263.7z M172.6,290.3v-20.8h3.8v20.8H172.6z"/>
	<path class="st2" d="M198.8,276c0-2.5,0-4.6-0.2-6.5h3.3l0.1,4.1h0.2c0.9-2.8,3.2-4.6,5.8-4.6c0.4,0,0.7,0,1.1,0.1v3.6
		c-0.4-0.1-0.8-0.1-1.3-0.1c-2.7,0-4.6,2-5.1,4.9c-0.1,0.5-0.2,1.1-0.2,1.8v11.1h-3.7V276z"/>
	<path class="st2" d="M230.7,280.6c0.1,5.1,3.4,7.2,7.1,7.2c2.7,0,4.3-0.5,5.8-1.1l0.6,2.7c-1.3,0.6-3.6,1.3-6.9,1.3
		c-6.4,0-10.2-4.2-10.2-10.5c0-6.3,3.7-11.2,9.8-11.2c6.8,0,8.6,6,8.6,9.8c0,0.8-0.1,1.4-0.1,1.8H230.7z M241.8,277.9
		c0-2.4-1-6.1-5.2-6.1c-3.8,0-5.5,3.5-5.8,6.1H241.8z"/>
	<path class="st2" d="M284.2,259.8V285c0,1.8,0,4,0.2,5.4H281l-0.2-3.6h-0.1c-1.2,2.3-3.7,4.1-7.1,4.1c-5,0-8.9-4.3-8.9-10.6
		c0-6.9,4.3-11.2,9.3-11.2c3.2,0,5.3,1.5,6.3,3.2h0.1v-12.4H284.2z M280.4,278c0-0.5,0-1.1-0.2-1.6c-0.6-2.4-2.6-4.4-5.5-4.4
		c-3.9,0-6.2,3.4-6.2,8c0,4.2,2.1,7.7,6.1,7.7c2.5,0,4.9-1.7,5.5-4.5c0.1-0.5,0.2-1,0.2-1.6V278z"/>
	<path class="st2" d="M331.7,290.3c0.1-1.4,0.2-3.5,0.2-5.4v-25.2h3.7v13.1h0.1c1.3-2.3,3.7-3.8,7.1-3.8c5.2,0,8.8,4.3,8.8,10.6
		c0,7.4-4.7,11.1-9.3,11.1c-3,0-5.4-1.2-7-3.9h-0.1l-0.2,3.4H331.7z M335.6,282c0,0.5,0.1,0.9,0.2,1.4c0.7,2.6,2.9,4.4,5.7,4.4
		c4,0,6.3-3.2,6.3-8c0-4.2-2.2-7.7-6.2-7.7c-2.6,0-5,1.8-5.8,4.6c-0.1,0.4-0.2,0.9-0.2,1.5V282z"/>
	<path class="st2" d="M373.5,269.5l4.6,12.3c0.5,1.4,1,3,1.3,4.3h0.1c0.4-1.2,0.8-2.8,1.3-4.3l4.1-12.2h4l-5.7,14.8
		c-2.7,7.1-4.6,10.8-7.1,13c-1.8,1.6-3.7,2.3-4.6,2.5l-0.9-3.2c0.9-0.3,2.2-0.9,3.3-1.8c1-0.8,2.3-2.3,3.2-4.2
		c0.2-0.4,0.3-0.7,0.3-0.9c0-0.2-0.1-0.5-0.3-1l-7.7-19.2H373.5z"/>
	<path class="st2" d="M433.9,290.3v-29h4.1l9.3,14.7c2.2,3.4,3.8,6.4,5.2,9.4l0.1,0c-0.3-3.9-0.4-7.4-0.4-11.9v-12.1h3.5v29h-3.8
		l-9.2-14.7c-2-3.2-4-6.5-5.4-9.7l-0.1,0c0.2,3.7,0.3,7.1,0.3,12v12.4H433.9z"/>
	<path class="st2" d="M489.7,290.3l-0.3-2.6h-0.1c-1.2,1.6-3.4,3.1-6.4,3.1c-4.2,0-6.4-3-6.4-6c0-5,4.5-7.8,12.5-7.7v-0.4
		c0-1.7-0.5-4.8-4.7-4.8c-1.9,0-4,0.6-5.4,1.5l-0.9-2.5c1.7-1.1,4.2-1.8,6.8-1.8c6.4,0,7.9,4.3,7.9,8.5v7.8c0,1.8,0.1,3.6,0.3,5
		H489.7z M489.2,279.7c-4.1-0.1-8.8,0.6-8.8,4.7c0,2.5,1.6,3.6,3.6,3.6c2.7,0,4.4-1.7,5-3.5c0.1-0.4,0.2-0.8,0.2-1.2V279.7z"/>
	<path class="st2" d="M519.4,263.5v6h5.4v2.9h-5.4v11.2c0,2.6,0.7,4,2.8,4c1,0,1.7-0.1,2.2-0.3l0.2,2.8c-0.7,0.3-1.9,0.5-3.4,0.5
		c-1.8,0-3.2-0.6-4.1-1.6c-1.1-1.1-1.5-3-1.5-5.4v-11.4h-3.2v-2.9h3.2v-5L519.4,263.5z"/>
	<path class="st2" d="M562.6,284.7c0,2.1,0,4,0.2,5.7h-3.4l-0.2-3.4h-0.1c-1,1.7-3.2,3.9-6.9,3.9c-3.3,0-7.2-1.8-7.2-9.1v-12.2h3.8
		V281c0,4,1.2,6.6,4.6,6.6c2.5,0,4.3-1.8,5-3.4c0.2-0.6,0.3-1.2,0.3-1.9v-12.8h3.8V284.7z"/>
	<path class="st2" d="M585,276c0-2.5,0-4.6-0.2-6.5h3.3l0.1,4.1h0.2c0.9-2.8,3.2-4.6,5.8-4.6c0.4,0,0.7,0,1.1,0.1v3.6
		c-0.4-0.1-0.8-0.1-1.3-0.1c-2.7,0-4.6,2-5.1,4.9c-0.1,0.5-0.2,1.1-0.2,1.8v11.1H585V276z"/>
	<path class="st2" d="M616.9,280.6c0.1,5.1,3.4,7.2,7.1,7.2c2.7,0,4.3-0.5,5.8-1.1l0.6,2.7c-1.3,0.6-3.6,1.3-6.9,1.3
		c-6.4,0-10.2-4.2-10.2-10.5c0-6.3,3.7-11.2,9.8-11.2c6.8,0,8.6,6,8.6,9.8c0,0.8-0.1,1.4-0.1,1.8H616.9z M628,277.9
		c0-2.4-1-6.1-5.2-6.1c-3.8,0-5.5,3.5-5.8,6.1H628z"/>
</g>
<rect x="354.7" y="218.4" class="st3" width="24.2" height="11.5"/>
<rect x="355.2" y="187.2" class="st3" width="23.1" height="11"/>
<circle class="st3" cx="199.5" cy="209.4" r="20.1"/>
<path class="st3" d="M52.2,188.3v9.5c0,0-0.1,0.5,0.2,0.8c0.2,0.3,0.5,0.3,0.5,0.3h7.9c0,0,0.4,0,1-0.1s1.8-0.6,2.1-0.9
	c0.3-0.3,1.2-1,1.8-1.8s0.9-2.3,0.9-2.3s0.2-0.8,0-2.1s-1.5-2.9-1.5-2.9s-0.8-1.1-2.4-1.7c-1.6-0.6-2.9-0.4-2.9-0.4h-6.5
	c0,0-0.6-0.1-1,0.2S52.2,188.3,52.2,188.3z"/>
<path class="st3" d="M52.3,219.5c-0.1-0.9,0.8-0.8,0.8-0.8h10.1c0,0,1.8-0.2,3.4,0.4c1.6,0.6,2.7,2.2,2.7,2.2s1.3,1.7,1.1,3.9
	c-0.1,2.2-1.2,3.3-1.2,3.3s-0.2,0.5-1.4,1.4c-1.2,0.9-3.2,1.1-3.2,1.1H53.1c0,0-0.3,0-0.6-0.2c-0.3-0.3-0.3-0.8-0.3-0.8l0.1-9.3
	V219.5z"/>
<polygon class="st3" points="443.4,201.9 437.8,217.1 449.3,217.1 "/>
</svg>
